<svg width="286" height="40" viewBox="0 0 286 40" fill="none" xmlns="http://www.w3.org/2000/svg">
    <rect x="0.5" y="0.5" width="285" height="39" rx="5.5" fill="black"/>
    <path d="M93.8 19.336C93.8 20.4773 93.5653 21.4747 93.096 22.328C92.6373 23.1707 91.96 23.8267 91.064 24.296C90.1787 24.7653 89.1173 25 87.88 25H84.104V13.704H87.88C89.1173 13.704 90.1787 13.9387 91.064 14.408C91.96 14.8667 92.6373 15.5173 93.096 16.36C93.5653 17.2027 93.8 18.1947 93.8 19.336ZM87.736 23.352C89.0907 23.352 90.1307 23 90.856 22.296C91.5813 21.592 91.944 20.6053 91.944 19.336C91.944 18.0667 91.5813 17.08 90.856 16.376C90.1307 15.672 89.0907 15.32 87.736 15.32H85.928V23.352H87.736ZM99.6673 16.072C100.521 16.072 101.289 16.2533 101.971 16.616C102.654 16.9787 103.187 17.5013 103.571 18.184C103.955 18.8667 104.147 19.6667 104.147 20.584C104.147 21.512 103.955 22.3173 103.571 23C103.187 23.6827 102.654 24.2053 101.971 24.568C101.289 24.9307 100.521 25.112 99.6673 25.112C98.8139 25.112 98.0459 24.9307 97.3633 24.568C96.6913 24.2053 96.1579 23.6827 95.7633 23C95.3793 22.3067 95.1873 21.5013 95.1873 20.584C95.1873 19.6667 95.3793 18.8667 95.7633 18.184C96.1579 17.5013 96.6913 16.9787 97.3633 16.616C98.0459 16.2533 98.8139 16.072 99.6673 16.072ZM99.6673 17.656C99.1979 17.656 98.7659 17.7627 98.3713 17.976C97.9766 18.1893 97.6566 18.52 97.4113 18.968C97.1766 19.4053 97.0593 19.944 97.0593 20.584C97.0593 21.2347 97.1766 21.7787 97.4113 22.216C97.6566 22.6533 97.9766 22.9787 98.3713 23.192C98.7659 23.4053 99.1979 23.512 99.6673 23.512C100.137 23.512 100.569 23.4053 100.963 23.192C101.358 22.9787 101.673 22.6533 101.907 22.216C102.153 21.7787 102.275 21.2347 102.275 20.584C102.275 19.944 102.153 19.4053 101.907 18.968C101.673 18.52 101.358 18.1893 100.963 17.976C100.569 17.7627 100.137 17.656 99.6673 17.656ZM118.253 16.184L115.805 25H113.789L111.613 18.184L109.405 25H107.405L104.957 16.184H106.797L108.477 23.32L110.685 16.184H112.605L114.845 23.32L116.525 16.184H118.253ZM124.423 16.04C125.447 16.04 126.268 16.3707 126.887 17.032C127.505 17.6933 127.815 18.6373 127.815 19.864V25H125.991V20.056C125.991 19.2667 125.788 18.6587 125.383 18.232C124.977 17.7947 124.423 17.576 123.719 17.576C122.993 17.576 122.412 17.8107 121.975 18.28C121.537 18.7387 121.319 19.416 121.319 20.312V25H119.495V16.184H121.319V18.12C121.553 17.4587 121.948 16.9467 122.503 16.584C123.057 16.2213 123.697 16.04 124.423 16.04ZM131.772 13.16V25H129.948V13.16H131.772ZM138.011 16.072C138.864 16.072 139.632 16.2533 140.315 16.616C140.998 16.9787 141.531 17.5013 141.915 18.184C142.299 18.8667 142.491 19.6667 142.491 20.584C142.491 21.512 142.299 22.3173 141.915 23C141.531 23.6827 140.998 24.2053 140.315 24.568C139.632 24.9307 138.864 25.112 138.011 25.112C137.158 25.112 136.39 24.9307 135.707 24.568C135.035 24.2053 134.502 23.6827 134.107 23C133.723 22.3067 133.531 21.5013 133.531 20.584C133.531 19.6667 133.723 18.8667 134.107 18.184C134.502 17.5013 135.035 16.9787 135.707 16.616C136.39 16.2533 137.158 16.072 138.011 16.072ZM138.011 17.656C137.542 17.656 137.11 17.7627 136.715 17.976C136.32 18.1893 136 18.52 135.755 18.968C135.52 19.4053 135.403 19.944 135.403 20.584C135.403 21.2347 135.52 21.7787 135.755 22.216C136 22.6533 136.32 22.9787 136.715 23.192C137.11 23.4053 137.542 23.512 138.011 23.512C138.48 23.512 138.912 23.4053 139.307 23.192C139.702 22.9787 140.016 22.6533 140.251 22.216C140.496 21.7787 140.619 21.2347 140.619 20.584C140.619 19.944 140.496 19.4053 140.251 18.968C140.016 18.52 139.702 18.1893 139.307 17.976C138.912 17.7627 138.48 17.656 138.011 17.656ZM147.781 16.072C148.581 16.072 149.263 16.2693 149.829 16.664C150.394 17.0587 150.794 17.5813 151.029 18.232V16.184H152.853V25H151.029V22.952C150.794 23.6027 150.394 24.1253 149.829 24.52C149.263 24.9147 148.581 25.112 147.781 25.112C147.013 25.112 146.325 24.9307 145.717 24.568C145.119 24.2053 144.65 23.6827 144.309 23C143.967 22.3173 143.797 21.512 143.797 20.584C143.797 19.6667 143.967 18.8667 144.309 18.184C144.65 17.5013 145.119 16.9787 145.717 16.616C146.325 16.2533 147.013 16.072 147.781 16.072ZM148.341 17.672C147.53 17.672 146.879 17.9333 146.389 18.456C145.909 18.968 145.669 19.6773 145.669 20.584C145.669 21.4907 145.909 22.2053 146.389 22.728C146.879 23.24 147.53 23.496 148.341 23.496C148.853 23.496 149.311 23.3787 149.717 23.144C150.122 22.8987 150.442 22.5573 150.677 22.12C150.911 21.6827 151.029 21.1707 151.029 20.584C151.029 20.008 150.911 19.5013 150.677 19.064C150.442 18.616 150.122 18.2747 149.717 18.04C149.311 17.7947 148.853 17.672 148.341 17.672ZM158.578 16.072C159.378 16.072 160.06 16.2693 160.626 16.664C161.191 17.0587 161.586 17.5813 161.81 18.232V13.16H163.65V25H161.81V22.952C161.586 23.6027 161.191 24.1253 160.626 24.52C160.06 24.9147 159.378 25.112 158.578 25.112C157.81 25.112 157.122 24.9307 156.514 24.568C155.916 24.2053 155.447 23.6827 155.106 23C154.764 22.3173 154.594 21.512 154.594 20.584C154.594 19.6667 154.764 18.8667 155.106 18.184C155.447 17.5013 155.916 16.9787 156.514 16.616C157.122 16.2533 157.81 16.072 158.578 16.072ZM159.138 17.672C158.327 17.672 157.676 17.9333 157.186 18.456C156.706 18.968 156.466 19.6773 156.466 20.584C156.466 21.4907 156.706 22.2053 157.186 22.728C157.676 23.24 158.327 23.496 159.138 23.496C159.65 23.496 160.108 23.3787 160.514 23.144C160.919 22.8987 161.239 22.5573 161.474 22.12C161.708 21.6827 161.826 21.1707 161.826 20.584C161.826 20.008 161.708 19.5013 161.474 19.064C161.239 18.616 160.919 18.2747 160.514 18.04C160.108 17.7947 159.65 17.672 159.138 17.672ZM171.028 22.984V25H168.964V22.984H171.028ZM176.171 16.072C176.971 16.072 177.654 16.2693 178.219 16.664C178.785 17.0587 179.185 17.5813 179.419 18.232V16.184H181.243V25H179.419V22.952C179.185 23.6027 178.785 24.1253 178.219 24.52C177.654 24.9147 176.971 25.112 176.171 25.112C175.403 25.112 174.715 24.9307 174.107 24.568C173.51 24.2053 173.041 23.6827 172.699 23C172.358 22.3173 172.187 21.512 172.187 20.584C172.187 19.6667 172.358 18.8667 172.699 18.184C173.041 17.5013 173.51 16.9787 174.107 16.616C174.715 16.2533 175.403 16.072 176.171 16.072ZM176.731 17.672C175.921 17.672 175.27 17.9333 174.779 18.456C174.299 18.968 174.059 19.6773 174.059 20.584C174.059 21.4907 174.299 22.2053 174.779 22.728C175.27 23.24 175.921 23.496 176.731 23.496C177.243 23.496 177.702 23.3787 178.107 23.144C178.513 22.8987 178.833 22.5573 179.067 22.12C179.302 21.6827 179.419 21.1707 179.419 20.584C179.419 20.008 179.302 19.5013 179.067 19.064C178.833 18.616 178.513 18.2747 178.107 18.04C177.702 17.7947 177.243 17.672 176.731 17.672ZM188.488 16.072C189.256 16.072 189.939 16.2533 190.536 16.616C191.144 16.9787 191.619 17.5013 191.96 18.184C192.301 18.8667 192.472 19.6667 192.472 20.584C192.472 21.512 192.301 22.3173 191.96 23C191.619 23.6827 191.144 24.2053 190.536 24.568C189.939 24.9307 189.256 25.112 188.488 25.112C187.688 25.112 187.005 24.9147 186.44 24.52C185.875 24.1253 185.48 23.6027 185.256 22.952V29.192H183.432V16.184H185.256V18.232C185.48 17.5813 185.875 17.0587 186.44 16.664C187.005 16.2693 187.688 16.072 188.488 16.072ZM187.928 17.672C187.416 17.672 186.957 17.7947 186.552 18.04C186.147 18.2747 185.827 18.616 185.592 19.064C185.357 19.5013 185.24 20.008 185.24 20.584C185.24 21.1707 185.357 21.6827 185.592 22.12C185.827 22.5573 186.147 22.8987 186.552 23.144C186.957 23.3787 187.416 23.496 187.928 23.496C188.739 23.496 189.389 23.24 189.88 22.728C190.371 22.2053 190.616 21.4907 190.616 20.584C190.616 19.688 190.371 18.9787 189.88 18.456C189.389 17.9333 188.739 17.672 187.928 17.672ZM199.221 25L196.053 21.08V25H194.229V13.16H196.053V19.944L199.189 16.184H201.381L197.541 20.568L201.477 25H199.221ZM210.529 14.36C209.814 14.328 209.313 14.4453 209.025 14.712C208.737 14.968 208.593 15.4107 208.593 16.04V16.184H210.529V17.752H208.593V25H206.753V17.752H205.553V16.184H206.753V15.896C206.753 14.8187 207.067 14.0133 207.697 13.48C208.326 12.936 209.27 12.696 210.529 12.76V14.36ZM211.739 13.624C211.739 13.3147 211.845 13.0587 212.059 12.856C212.272 12.6533 212.555 12.552 212.907 12.552C213.259 12.552 213.541 12.6533 213.755 12.856C213.979 13.0587 214.091 13.3147 214.091 13.624C214.091 13.9333 213.979 14.184 213.755 14.376C213.541 14.568 213.259 14.664 212.907 14.664C212.555 14.664 212.272 14.568 212.059 14.376C211.845 14.184 211.739 13.9333 211.739 13.624ZM213.819 16.184V25H211.995V16.184H213.819ZM217.85 13.16V25H216.026V13.16H217.85ZM228.249 20.168C228.249 20.4667 228.228 20.728 228.185 20.952H221.401C221.433 21.8587 221.684 22.5307 222.153 22.968C222.622 23.4053 223.204 23.624 223.897 23.624C224.505 23.624 225.017 23.4693 225.433 23.16C225.86 22.8507 226.121 22.44 226.217 21.928H228.169C228.052 22.5467 227.806 23.096 227.433 23.576C227.06 24.056 226.574 24.4347 225.977 24.712C225.38 24.9787 224.713 25.112 223.977 25.112C223.124 25.112 222.366 24.9307 221.705 24.568C221.054 24.2053 220.542 23.6827 220.169 23C219.796 22.3173 219.609 21.512 219.609 20.584C219.609 19.6667 219.796 18.8667 220.169 18.184C220.542 17.5013 221.054 16.9787 221.705 16.616C222.366 16.2533 223.124 16.072 223.977 16.072C224.841 16.072 225.593 16.2533 226.233 16.616C226.884 16.968 227.38 17.4587 227.721 18.088C228.073 18.7067 228.249 19.4 228.249 20.168ZM226.409 20.12C226.43 19.544 226.329 19.064 226.105 18.68C225.892 18.2853 225.593 17.9973 225.209 17.816C224.836 17.624 224.425 17.528 223.977 17.528C223.262 17.528 222.665 17.7467 222.185 18.184C221.705 18.6213 221.444 19.2667 221.401 20.12H226.409Z" fill="white"/>
    <path d="M57.5 12C57.5 10.067 59.067 8.5 61 8.5H67.6679L74.5 15.3321V28C74.5 29.933 72.933 31.5 71 31.5H61C59.067 31.5 57.5 29.933 57.5 28V12Z" fill="#AAC148" fill-opacity="0.2" stroke="#AAC148"/>
    <path d="M68 11.5V9.20711L73.7929 15H71.5C69.567 15 68 13.433 68 11.5Z" fill="#AAC148" stroke="#AAC148"/>
    <path d="M68.7165 20.5656H63.2838C63.1629 20.5656 63.0649 20.6643 63.0649 20.7862V25.3805C63.0649 25.5024 63.1629 25.6012 63.2838 25.6012H64.2523V27.1495C64.2523 27.5087 64.5411 27.8 64.8973 27.8C65.2535 27.8 65.5423 27.5088 65.5423 27.1495V25.6012H66.4445V27.1495C66.4445 27.5087 66.7333 27.8 67.0895 27.8C67.4458 27.8 67.7346 27.5088 67.7346 27.1495V25.6012H68.7166C68.8374 25.6012 68.9354 25.5024 68.9354 25.3805V20.7862C68.9353 20.6643 68.8374 20.5656 68.7165 20.5656Z" fill="#AAC148"/>
    <path d="M62.145 20.5645C61.7888 20.5645 61.5 20.8557 61.5 21.2149V23.8569C61.5 24.2162 61.7888 24.5074 62.145 24.5074C62.5013 24.5074 62.7901 24.2162 62.7901 23.8569V21.2149C62.79 20.8557 62.5013 20.5645 62.145 20.5645Z" fill="#AAC148"/>
    <path d="M69.855 20.5645C69.4988 20.5645 69.21 20.8557 69.21 21.2149V23.8569C69.21 24.2162 69.4987 24.5074 69.855 24.5074C70.2112 24.5074 70.5 24.2162 70.5 23.8569V21.2149C70.5 20.8557 70.2112 20.5645 69.855 20.5645Z" fill="#AAC148"/>
    <path d="M63.3274 20.2434H68.6595C68.7986 20.2434 68.9023 20.1141 68.8737 19.9768C68.6974 19.1291 68.1622 18.4147 67.4359 18.002L67.8918 17.1726C67.9226 17.1165 67.9025 17.0457 67.8468 17.0146C67.791 16.9834 67.7209 17.0038 67.6901 17.0599L67.2308 17.8956C66.8547 17.7196 66.4354 17.6212 65.9934 17.6212C65.5514 17.6212 65.1322 17.7196 64.756 17.8956L64.2968 17.0599C64.2659 17.0037 64.1957 16.9835 64.1401 17.0146C64.0844 17.0457 64.0643 17.1165 64.0951 17.1726L64.5509 18.002C63.8247 18.4147 63.2895 19.1291 63.1132 19.9768C63.0846 20.1141 63.1883 20.2434 63.3274 20.2434ZM67.5845 19.0073C67.5845 19.1454 67.4735 19.2573 67.3365 19.2573C67.1996 19.2573 67.0886 19.1454 67.0886 19.0073C67.0886 18.8692 67.1996 18.7573 67.3365 18.7573C67.4735 18.7573 67.5845 18.8692 67.5845 19.0073ZM64.6503 18.7573C64.7873 18.7573 64.8983 18.8692 64.8983 19.0073C64.8983 19.1454 64.7873 19.2573 64.6503 19.2573C64.5134 19.2573 64.4024 19.1454 64.4024 19.0073C64.4024 18.8692 64.5134 18.7573 64.6503 18.7573Z" fill="#AAC148"/>
    <path d="M61.0575 13.115H59.9963L59.8088 13.6475H59.25L60.225 11.03H60.8288L61.8 13.6475H61.2413L61.0575 13.115ZM60.915 12.7137L60.525 11.5962L60.135 12.7137H60.915Z" fill="#AAC148"/>
    <path d="M62.6141 12.665V13.6475H62.0854V11H63.0491C63.3616 11 63.5966 11.075 63.7541 11.225C63.9141 11.375 63.9941 11.5787 63.9941 11.8362C63.9941 12.0887 63.9116 12.29 63.7466 12.44C63.5841 12.59 63.3516 12.665 63.0491 12.665H62.6141ZM62.9929 12.2412C63.3029 12.2412 63.4579 12.1062 63.4579 11.8362C63.4579 11.7037 63.4216 11.6025 63.3491 11.5325C63.2766 11.4625 63.1579 11.4275 62.9929 11.4275H62.6141V12.2412H62.9929Z" fill="#AAC148"/>
    <path d="M65.3651 12.3012L66.4863 13.6475H65.8451L64.8663 12.4362V13.6475H64.3376V11H64.8663V12.1888L65.8488 11H66.4863L65.3651 12.3012Z" fill="#AAC148"/>
    <rect x="0.5" y="0.5" width="285" height="39" rx="5.5" stroke="#A6A6A6"/>
</svg>
