<svg width="136" height="40" viewBox="0 0 136 40" fill="none" xmlns="http://www.w3.org/2000/svg">
    <path fill-rule="evenodd" clip-rule="evenodd" d="M130.534 40H5.02244C2.25436 40 0 37.7456 0 35V5C0 2.24439 2.25436 0 5.02244 0H130.534C133.299 0 135.556 2.24439 135.556 5V35C135.556 37.7456 133.299 40 130.534 40Z" fill="black"/>
    <path fill-rule="evenodd" clip-rule="evenodd" d="M130.534 0.800499C132.855 0.800499 134.756 2.68828 134.756 5V35C134.756 37.3117 132.868 39.1995 130.534 39.1995H5.02244C2.70075 39.1995 0.800499 37.3117 0.800499 35V5C0.800499 2.68828 2.68828 0.800499 5.02244 0.800499H130.534ZM130.534 0H5.02244C2.25436 0 0 2.25436 0 5V35C0 37.7556 2.25436 40 5.02244 40H130.534C133.299 40 135.556 37.7556 135.556 35V5C135.556 2.25436 133.299 0 130.534 0Z" fill="#A6A6A6"/>
    <path d="M71.412 13.2319C70.5067 13.2319 69.7436 12.9152 69.1401 12.2918C68.5416 11.6858 68.2075 10.8504 68.2224 9.9975C68.2224 9.08728 68.5317 8.3167 69.1401 7.70573C69.7411 7.08229 70.5042 6.76558 71.4095 6.76558C72.3047 6.76558 73.0678 7.08229 73.6813 7.70573C74.2898 8.33665 74.599 9.10723 74.599 9.9975C74.589 10.9102 74.2798 11.6808 73.6813 12.2893C73.0803 12.9177 72.3172 13.2319 71.412 13.2319ZM44.4768 13.2319C43.5915 13.2319 42.8235 12.9202 42.195 12.3042C41.5716 11.6908 41.2549 10.9152 41.2549 9.99999C41.2549 9.08478 41.5716 8.30922 42.195 7.69576C42.811 7.0798 43.5791 6.76808 44.4768 6.76808C44.9157 6.76808 45.3422 6.85536 45.7511 7.03242C46.1526 7.20449 46.4793 7.4389 46.7212 7.72568L46.7811 7.798L46.1053 8.46134L46.0354 8.37905C45.6539 7.92518 45.1427 7.70324 44.4668 7.70324C43.8634 7.70324 43.3372 7.9177 42.9033 8.34164C42.4669 8.76808 42.2449 9.32668 42.2449 10.0025C42.2449 10.6783 42.4669 11.2369 42.9033 11.6633C43.3372 12.0873 43.8634 12.3017 44.4668 12.3017C45.1102 12.3017 45.6514 12.0873 46.0728 11.6633C46.3222 11.414 46.4768 11.0648 46.5317 10.6234H44.3646V9.69077H47.4619L47.4743 9.77556C47.4968 9.93266 47.5192 10.0948 47.5192 10.2444C47.5192 11.1047 47.2599 11.8005 46.7461 12.3142C46.1626 12.9227 45.3995 13.2319 44.4768 13.2319ZM80.2898 13.0997H79.3347L76.4095 8.41895L76.4344 9.26184V13.0972H75.4793V6.90025H76.5691L76.599 6.94763L79.3496 11.3566L79.3247 10.5162V6.90025H80.2898V13.0997ZM64.2349 13.0997H63.2673V7.83291H61.589V6.90025H65.9107V7.83291H64.2324V13.0997H64.2349ZM60.801 13.0997H59.8359V6.90025H60.801V13.0997ZM55.3771 13.0997H54.412V7.83291H52.7337V6.90025H57.0554V7.83291H55.3771V13.0997ZM52.1227 13.0898H48.422V6.90025H52.1227V7.83291H49.3895V9.53366H51.8559V10.4564H49.3895V12.1571H52.1227V13.0898ZM69.8484 11.6509C70.2798 12.0823 70.8035 12.2992 71.412 12.2992C72.0379 12.2992 72.5491 12.0873 72.9756 11.6509C73.3995 11.2269 73.614 10.6708 73.614 9.99999C73.614 9.32917 73.3995 8.77057 72.978 8.34912C72.5466 7.9177 72.0204 7.70074 71.4145 7.70074C70.7885 7.70074 70.2773 7.91271 69.8534 8.34912C69.4294 8.77306 69.215 9.32917 69.215 9.99999C69.215 10.6708 69.4269 11.2294 69.8484 11.6509Z" fill="white"/>
    <path fill-rule="evenodd" clip-rule="evenodd" d="M68.1325 21.7556C65.7759 21.7556 63.8657 23.5436 63.8657 26.0099C63.8657 28.4538 65.7884 30.2643 68.1325 30.2643C70.4891 30.2643 72.3993 28.4638 72.3993 26.0099C72.3993 23.5436 70.4891 21.7556 68.1325 21.7556ZM68.1325 28.5785C66.8432 28.5785 65.7335 27.5112 65.7335 26C65.7335 24.4663 66.8457 23.4214 68.1325 23.4214C69.4218 23.4214 70.5315 24.4663 70.5315 26C70.534 27.5212 69.4218 28.5785 68.1325 28.5785ZM58.8233 21.7556C56.4667 21.7556 54.5565 23.5436 54.5565 26.0099C54.5565 28.4538 56.4792 30.2643 58.8233 30.2643C61.1799 30.2643 63.0901 28.4638 63.0901 26.0099C63.0901 23.5436 61.1774 21.7556 58.8233 21.7556ZM58.8233 28.5785C57.534 28.5785 56.4243 27.5112 56.4243 26C56.4243 24.4663 57.5365 23.4214 58.8233 23.4214C60.1126 23.4214 61.2223 24.4663 61.2223 26C61.2223 27.5212 60.1126 28.5785 58.8233 28.5785ZM47.746 23.0548V24.8553H52.0677C51.9355 25.8653 51.6013 26.6109 51.0901 27.1222C50.4567 27.7556 49.4792 28.4439 47.756 28.4439C45.1001 28.4439 43.0228 26.2992 43.0228 23.6434C43.0228 20.9875 45.1001 18.8429 47.756 18.8429C49.1899 18.8429 50.2348 19.409 51.0103 20.1321L52.2871 18.8553C51.2098 17.8229 49.7759 17.0324 47.7659 17.0324C44.1225 17.0324 41.0652 20 41.0652 23.6334C41.0652 27.2768 44.1201 30.2344 47.7659 30.2344C49.7335 30.2344 51.2098 29.591 52.3769 28.379C53.5664 27.1895 53.943 25.5112 53.943 24.1571C53.943 23.7356 53.9106 23.3566 53.8432 23.0349H47.7435C47.746 23.0324 47.746 23.0548 47.746 23.0548ZM93.0552 24.4563C92.6986 23.5012 91.6213 21.7456 89.4118 21.7456C87.2223 21.7456 85.4018 23.4688 85.4018 26C85.4018 28.389 87.2023 30.2543 89.6238 30.2543C91.5689 30.2543 92.7011 29.0648 93.1674 28.3666L91.7235 27.399C91.2447 28.1097 90.5789 28.576 89.6338 28.576C88.6787 28.576 88.0103 28.1421 87.5664 27.2868L93.2547 24.9301C93.2547 24.9326 93.0552 24.4563 93.0552 24.4563ZM87.2547 25.8778C87.2098 24.2344 88.5315 23.399 89.4767 23.399C90.2223 23.399 90.8432 23.7656 91.0552 24.2992L87.2547 25.8778ZM82.6338 30H84.5016V17.5012H82.6338V30ZM79.5664 22.7007H79.4991C79.0777 22.1995 78.2772 21.7456 77.2547 21.7456C75.1325 21.7456 73.1774 23.6134 73.1774 26.0124C73.1774 28.4015 75.1225 30.2469 77.2547 30.2469C78.2647 30.2469 79.0777 29.7905 79.4991 29.2793H79.5664V29.8902C79.5664 31.5137 78.6986 32.389 77.2996 32.389C76.155 32.389 75.4442 31.5661 75.155 30.8778L73.5315 31.5561C73.9979 32.6783 75.2422 34.0673 77.2971 34.0673C79.4866 34.0673 81.342 32.778 81.342 29.6334V22H79.5764V22.7007C79.5789 22.7007 79.5664 22.7007 79.5664 22.7007ZM77.4218 28.5785C76.1325 28.5785 75.0552 27.5012 75.0552 26.0124C75.0552 24.5112 76.1325 23.4239 77.4218 23.4239C78.6986 23.4239 79.6886 24.5237 79.6886 26.0124C79.7011 27.5012 78.7011 28.5785 77.4218 28.5785ZM101.801 17.5012H97.3345V30H99.2023V25.2668H101.803C103.871 25.2668 105.903 23.7681 105.903 21.389C105.903 19.0099 103.878 17.5012 101.801 17.5012ZM101.856 23.5212H99.1998V19.2319H101.856C103.255 19.2319 104.045 20.3865 104.045 21.3765C104.045 22.3566 103.245 23.5212 101.856 23.5212ZM113.389 21.7331C112.033 21.7331 110.634 22.3341 110.055 23.6434L111.711 24.3316C112.068 23.6434 112.721 23.4089 113.412 23.4089C114.379 23.4089 115.357 23.9875 115.379 25.0199V25.1521C115.045 24.9626 114.312 24.6733 113.434 24.6733C111.646 24.6733 109.833 25.6508 109.833 27.4838C109.833 29.1621 111.3 30.2394 112.933 30.2394C114.187 30.2394 114.878 29.6733 115.31 29.0174H115.377V29.985H117.177V25.197C117.177 22.9676 115.522 21.7331 113.389 21.7331ZM113.155 28.5785C112.544 28.5785 111.689 28.2793 111.689 27.5112C111.689 26.5436 112.756 26.177 113.666 26.177C114.489 26.177 114.878 26.3541 115.367 26.5985C115.232 27.7207 114.285 28.5685 113.155 28.5785ZM123.746 22L121.601 27.4214H121.534L119.312 22H117.302L120.636 29.5785L118.736 33.7905H120.681L125.811 22H123.746ZM106.933 30H108.801V17.5012H106.933V30Z" fill="white"/>
    <path fill-rule="evenodd" clip-rule="evenodd" d="M10.4322 7.53361C10.1429 7.84533 9.97583 8.32164 9.97583 8.94509V31.0573C9.97583 31.6808 10.1429 32.1571 10.4422 32.4563L10.5195 32.5236L22.9085 20.1346V19.8578L10.5095 7.46628L10.4322 7.53361Z" fill="url(#paint0_linear_12530_84)"/>
    <path fill-rule="evenodd" clip-rule="evenodd" d="M27.0323 24.2768L22.9001 20.1446V19.8553L27.0323 15.7231L27.1221 15.778L32.0099 18.5561C33.4089 19.3441 33.4089 20.6458 32.0099 21.4438L27.1221 24.2219L27.0323 24.2768Z" fill="url(#paint1_linear_12530_84)"/>
    <path fill-rule="evenodd" clip-rule="evenodd" d="M27.1228 24.2219L22.9009 20L10.4346 32.4663C10.8909 32.9551 11.6565 33.01 12.5119 32.5337L27.1228 24.2219Z" fill="url(#paint2_linear_12530_84)"/>
    <path fill-rule="evenodd" clip-rule="evenodd" d="M27.1228 15.778L12.5119 7.47879C11.6565 6.99002 10.8884 7.05735 10.4346 7.54613L22.9009 20L27.1228 15.778Z" fill="url(#paint3_linear_12530_84)"/>
    <path opacity="0.2" fill-rule="evenodd" clip-rule="evenodd" d="M27.0329 24.1322L12.5216 32.3766C11.7112 32.843 10.988 32.8105 10.5216 32.3866L10.4443 32.4639L10.5216 32.5312C10.988 32.9527 11.7112 32.9876 12.5216 32.5213L27.1326 24.222L27.0329 24.1322Z" fill="black"/>
    <path opacity="0.12" fill-rule="evenodd" clip-rule="evenodd" d="M32.0091 21.2993L27.019 24.1322L27.1088 24.2219L31.9966 21.4439C32.6973 21.0449 33.0415 20.5212 33.0415 20C32.9991 20.4788 32.6425 20.9327 32.0091 21.2993Z" fill="black"/>
    <path opacity="0.25" fill-rule="evenodd" clip-rule="evenodd" d="M12.5095 7.62339L32.0082 18.7007C32.6416 19.0573 32.9983 19.5236 33.0531 20C33.0531 19.4788 32.709 18.9551 32.0082 18.5561L12.5095 7.47875C11.1105 6.67825 9.97583 7.34658 9.97583 8.94509V9.08972C9.97583 7.48873 11.1105 6.83287 12.5095 7.62339Z" fill="white"/>
    <defs>
        <linearGradient id="paint0_linear_12530_84" x1="21.7972" y1="8.70652" x2="1.95215" y2="13.9942" gradientUnits="userSpaceOnUse">
            <stop stop-color="#00A0FF"/>
            <stop offset="0.00657" stop-color="#00A1FF"/>
            <stop offset="0.2601" stop-color="#00BEFF"/>
            <stop offset="0.5122" stop-color="#00D2FF"/>
            <stop offset="0.7604" stop-color="#00DFFF"/>
            <stop offset="1" stop-color="#00E3FF"/>
        </linearGradient>
        <linearGradient id="paint1_linear_12530_84" x1="33.8343" y1="20" x2="9.63743" y2="20" gradientUnits="userSpaceOnUse">
            <stop stop-color="#FFE000"/>
            <stop offset="0.4087" stop-color="#FFBD00"/>
            <stop offset="0.7754" stop-color="#FFA500"/>
            <stop offset="1" stop-color="#FF9C00"/>
        </linearGradient>
        <linearGradient id="paint2_linear_12530_84" x1="24.8271" y1="22.2973" x2="8.89559" y2="49.1114" gradientUnits="userSpaceOnUse">
            <stop stop-color="#FF3A44"/>
            <stop offset="1" stop-color="#C31162"/>
        </linearGradient>
        <linearGradient id="paint3_linear_12530_84" x1="7.29541" y1="0.178781" x2="14.4031" y2="12.1544" gradientUnits="userSpaceOnUse">
            <stop stop-color="#32A071"/>
            <stop offset="0.0685" stop-color="#2DA771"/>
            <stop offset="0.4762" stop-color="#15CF74"/>
            <stop offset="0.8009" stop-color="#06E775"/>
            <stop offset="1" stop-color="#00F076"/>
        </linearGradient>
    </defs>
</svg>
