<svg width="24" height="24" viewBox="0 0 24 24" fill="none" xmlns="http://www.w3.org/2000/svg">
<g clip-path="url(#clip0_11532_5438)">
<path d="M18.0875 7.92346H5.9126C5.64177 7.92346 5.42224 8.14299 5.42224 8.41382V18.6234C5.42224 18.8943 5.64177 19.1138 5.9126 19.1138H8.08309V22.5545C8.08309 23.3528 8.73024 24 9.5286 24C10.3269 24 10.9741 23.3528 10.9741 22.5545V19.1138H12.9959V22.5545C12.9959 23.3528 13.643 24 14.4414 24C15.2397 24 15.8869 23.3528 15.8869 22.5545V19.1138H18.0875C18.3584 19.1138 18.5779 18.8943 18.5779 18.6234V8.41382C18.5778 8.14299 18.3583 7.92346 18.0875 7.92346Z" fill="#AAC148"/>
<path d="M3.36103 7.92108C2.56273 7.92108 1.91553 8.56823 1.91553 9.36659V15.2377C1.91553 16.036 2.56267 16.6832 3.36103 16.6832C4.15934 16.6832 4.80654 16.036 4.80654 15.2377V9.36659C4.80648 8.56829 4.15934 7.92108 3.36103 7.92108Z" fill="#AAC148"/>
<path d="M20.6391 7.92108C19.8408 7.92108 19.1936 8.56823 19.1936 9.36659V15.2377C19.1936 16.036 19.8407 16.6832 20.6391 16.6832C21.4374 16.6832 22.0846 16.036 22.0846 15.2377V9.36659C22.0846 8.56829 21.4375 7.92108 20.6391 7.92108Z" fill="#AAC148"/>
<path d="M6.01113 7.20742H17.9602C18.2719 7.20742 18.5044 6.92027 18.4404 6.61517C18.0451 4.73135 16.8458 3.14381 15.2183 2.22671L16.2398 0.383625C16.3089 0.258843 16.2639 0.101588 16.1391 0.0324583C16.014 -0.0368456 15.857 0.00840814 15.7879 0.13319L14.7586 1.99016C13.9157 1.59897 12.9762 1.38049 11.9857 1.38049C10.9951 1.38049 10.0556 1.59897 9.21264 1.99016L8.18342 0.133132C8.11424 0.00829197 7.95698 -0.0367294 7.83226 0.0324002C7.70748 0.10153 7.6624 0.258785 7.73153 0.383567L8.75302 2.22666C7.12557 3.14381 5.9262 4.7313 5.53094 6.61517C5.46686 6.92027 5.69935 7.20742 6.01113 7.20742ZM15.5511 4.46065C15.5511 4.76749 15.3024 5.0163 14.9955 5.0163C14.6886 5.0163 14.4398 4.76755 14.4398 4.46065C14.4398 4.1538 14.6886 3.90499 14.9955 3.90499C15.3024 3.90499 15.5511 4.1538 15.5511 4.46065ZM8.97574 3.90499C9.28258 3.90499 9.53139 4.15375 9.53139 4.46065C9.53139 4.76749 9.28264 5.0163 8.97574 5.0163C8.6689 5.0163 8.42009 4.76755 8.42009 4.46065C8.42009 4.1538 8.66884 3.90499 8.97574 3.90499Z" fill="#AAC148"/>
</g>
<defs>
<clipPath id="clip0_11532_5438">
<rect width="24" height="24" fill="white"/>
</clipPath>
</defs>
</svg>
