<svg width="24" height="24" viewBox="0 0 24 24" fill="none" xmlns="http://www.w3.org/2000/svg">
<path d="M7.51514 12.0008C7.51514 14.4736 9.52696 16.4853 11.9999 16.4853C14.4727 16.4853 16.4843 14.4736 16.4843 12.0008C16.4843 9.52794 14.4727 7.51611 11.9999 7.51611C9.52696 7.51607 7.51514 9.52789 7.51514 12.0008Z"
fill="#73A1FB"/>
<path d="M22.3266 6.08106C22.3615 6.0196 22.3609 5.94414 22.3248 5.88329C21.2802 4.12398 19.7936 2.65028 18.0258 1.6216C16.2038 0.561292 14.1201 0.000854492 12.0001 0.000854492C8.33123 0.000854492 4.91207 1.64734 2.61923 4.51811C2.56865 4.58139 2.56204 4.66909 2.60254 4.73921L5.98063 10.5901C6.01602 10.6515 6.08137 10.6884 6.15093 10.6884C6.15974 10.6884 6.1687 10.6878 6.1776 10.6866C6.25677 10.6758 6.32151 10.6182 6.34152 10.5409C7.00762 7.96 9.33454 6.15746 12.0001 6.15746C12.1655 6.15746 12.3363 6.16501 12.508 6.17964C12.5136 6.1802 12.5193 6.18043 12.5249 6.18043H22.1556C22.2264 6.18053 22.2917 6.1426 22.3266 6.08106Z"
fill="#DA143A"/>
<path d="M13.7732 17.6999C13.7244 17.6367 13.6424 17.6095 13.565 17.6309C13.0569 17.7724 12.5304 17.8441 12 17.8441C9.7463 17.8441 7.66912 16.5223 6.70814 14.4767C6.7058 14.4717 6.70317 14.4668 6.70041 14.4619L1.88152 6.11556C1.84641 6.05457 1.78144 6.01721 1.71117 6.01721C1.71084 6.01721 1.71047 6.01721 1.71014 6.01721C1.6395 6.01759 1.57439 6.05579 1.5398 6.11729C0.5325 7.90468 0 9.9392 0 12.0009C0 14.893 1.04339 17.6867 2.93798 19.8673C4.81378 22.0261 7.39617 23.4468 10.2097 23.8678C10.2194 23.8693 10.2292 23.8699 10.2389 23.8699C10.3083 23.8699 10.3737 23.8329 10.4092 23.7716L13.7881 17.9189C13.8281 17.8496 13.8222 17.7631 13.7732 17.6999Z"
fill="#78B86D"/>
<path d="M22.9909 7.49316H16.2257C16.1457 7.49316 16.0737 7.54154 16.0436 7.61551C16.0134 7.68948 16.0309 7.77446 16.088 7.83034C17.2199 8.94001 17.8433 10.4211 17.8433 12.0008C17.8433 13.1967 17.4825 14.3476 16.7997 15.3292C16.7966 15.3337 16.7937 15.3384 16.7909 15.3432L11.9636 23.704C11.9283 23.7653 11.9285 23.8407 11.9642 23.9018C11.9995 23.9622 12.0642 23.9992 12.134 23.9992C12.1347 23.9992 12.1355 23.9992 12.1362 23.9992C15.3129 23.9638 18.2938 22.6999 20.5298 20.4407C22.7676 18.1795 24 15.1822 24 12.0009C24 10.4887 23.7221 9.01416 23.174 7.61804C23.1444 7.54266 23.0718 7.49316 22.9909 7.49316Z"
fill="#F1CB30"/>
</svg>
