<svg width="34" height="34" viewBox="0 0 34 34" fill="none" xmlns="http://www.w3.org/2000/svg">
    <g clip-path="url(#clip0_11054_5362)">
        <path d="M10.0203 16.0011C10.0203 19.2982 12.7028 21.9805 16 21.9805C19.2971 21.9805 21.9793 19.2982 21.9793 16.0011C21.9793 12.704 19.297 10.0216 16 10.0216C12.7028 10.0215 10.0203 12.7039 10.0203 16.0011Z" fill="#73A1FB"/>
        <path d="M29.7687 8.10813C29.8153 8.02619 29.8144 7.92557 29.7663 7.84444C28.3734 5.49869 26.3914 3.53375 24.0343 2.16219C21.6049 0.74844 18.8266 0.00119019 16 0.00119019C11.1082 0.00119019 6.54932 2.1965 3.49219 6.02419C3.42475 6.10857 3.41594 6.2255 3.46994 6.319L7.97407 14.1202C8.02125 14.202 8.10838 14.2513 8.20113 14.2513C8.21288 14.2513 8.22482 14.2505 8.23669 14.2489C8.34225 14.2345 8.42857 14.1577 8.45525 14.0546C9.34338 10.6134 12.4459 8.21 16 8.21C16.2206 8.21 16.4483 8.22007 16.6773 8.23957C16.6847 8.24032 16.6923 8.24063 16.6997 8.24063H29.5407C29.6351 8.24075 29.7221 8.19019 29.7687 8.10813Z" fill="#DA143A"/>
        <path d="M18.3643 23.5998C18.2992 23.5156 18.1898 23.4794 18.0867 23.5079C17.4092 23.6965 16.7072 23.7921 16 23.7921C12.9951 23.7921 10.2255 22.0297 8.94419 19.3022C8.94106 19.2956 8.93756 19.289 8.93387 19.2825L2.50869 8.15406C2.46187 8.07275 2.37525 8.02293 2.28156 8.02293C2.28112 8.02293 2.28062 8.02293 2.28019 8.02293C2.186 8.02343 2.09919 8.07437 2.05306 8.15637C0.71 10.5396 0 13.2522 0 16.0011C0 19.8574 1.39119 23.5823 3.91731 26.4897C6.41837 29.3681 9.86156 31.2624 13.6129 31.8237C13.6259 31.8257 13.6389 31.8266 13.6518 31.8266C13.7444 31.8266 13.8316 31.7772 13.8789 31.6954L18.3842 23.8919C18.4374 23.7994 18.4296 23.6841 18.3643 23.5998Z" fill="#78B86D"/>
        <path d="M30.6544 9.99088H21.6342C21.5275 9.99088 21.4315 10.0554 21.3914 10.154C21.3511 10.2526 21.3745 10.3659 21.4506 10.4404C22.9599 11.92 23.791 13.8948 23.791 16.0011C23.791 17.5956 23.3099 19.1301 22.3995 20.4389C22.3954 20.4449 22.3915 20.4511 22.3878 20.4576L15.9514 31.6054C15.9043 31.687 15.9046 31.7876 15.9522 31.8691C15.9993 31.9496 16.0855 31.9989 16.1786 31.9989C16.1795 31.9989 16.1806 31.9989 16.1815 31.9989C20.4171 31.9517 24.3917 30.2666 27.373 27.2543C30.3567 24.2394 32 20.2429 32 16.0011C32 13.9849 31.6294 12.0189 30.8986 10.1574C30.8591 10.0569 30.7623 9.99088 30.6544 9.99088Z" fill="#F1CB30"/>
    </g>
    <circle cx="25" cy="25" r="9" fill="url(#paint0_linear_11054_5362)"/>
    <mask id="mask0_11054_5362" style="mask-type:alpha" maskUnits="userSpaceOnUse" x="16" y="16" width="18" height="18">
        <circle cx="25" cy="25" r="9" fill="url(#paint1_linear_11054_5362)"/>
    </mask>
    <g mask="url(#mask0_11054_5362)">
        <g filter="url(#filter0_f_11054_5362)">
            <path d="M20.4104 19.241C24.9661 18.4628 29.872 21.3617 31.3681 25.7159C32.8641 30.07 30.3838 34.2307 25.8281 35.0089C21.2724 35.7871 16.3665 32.8882 14.8705 28.5341C13.3744 24.1799 15.8547 20.0193 20.4104 19.241Z" fill="url(#paint2_linear_11054_5362)"/>
        </g>
        <g filter="url(#filter1_f_11054_5362)">
            <path d="M31.2879 28.4031C27.7317 31.3549 22.0336 31.2973 18.5609 28.2746C15.0882 25.2518 15.1559 20.4084 18.7121 17.4566C22.2683 14.5048 27.9664 14.5623 31.4391 17.5851C34.9118 20.6079 34.8441 25.4513 31.2879 28.4031Z" fill="url(#paint3_linear_11054_5362)"/>
        </g>
        <path d="M28.5231 20.5458C28.2383 20.4996 27.9465 20.5259 27.6745 20.6221C27.4025 20.7184 27.1592 20.8815 26.9668 21.0965C26.5996 21.508 26.4854 22.0438 26.5736 22.5806C26.6534 23.0648 26.7594 23.5562 26.7832 24.0227C26.8166 24.7252 26.7097 25.4273 26.4688 26.088C26.2508 26.6898 25.9385 27.1535 25.2724 27.2561C25.2231 27.2638 25.0434 27.2694 24.9924 27.2722C24.9413 27.2749 24.7799 27.2644 24.73 27.2566C24.0645 27.154 23.7511 26.6904 23.5337 26.0886C23.2928 25.4278 23.1859 24.7257 23.2192 24.0232C23.2431 23.5584 23.349 23.0665 23.4289 22.5812C23.5171 22.0443 23.4028 21.5086 23.0357 21.097C22.8433 20.882 22.5999 20.7189 22.328 20.6227C22.056 20.5264 21.7642 20.5002 21.4794 20.5463C20.6247 20.6866 20.0563 21.4437 20.0502 22.2396C20.0478 22.5458 20.131 22.8466 20.2903 23.1081C20.556 23.5462 20.9919 23.8657 21.3724 24.1974C21.6242 24.4192 22.0595 25.0487 22.2731 25.7309C22.4023 26.1441 22.5077 26.5628 22.6119 26.9854C22.7584 27.5744 22.9597 28.8756 23.0922 29.4662C23.3568 30.6487 24.1665 30.9165 24.9779 30.9437H25.0068C25.8182 30.9165 26.6412 30.6481 26.9058 29.4657C27.0378 28.875 27.2386 27.5733 27.3861 26.9849C27.4909 26.5645 27.5957 26.1435 27.725 25.7303C27.9385 25.0481 28.3739 24.4164 28.6257 24.1968C29.0061 23.864 29.4415 23.5457 29.7077 23.1075C29.8678 22.8464 29.9517 22.5458 29.9501 22.2396C29.9451 21.4426 29.3766 20.6866 28.5231 20.5458Z" fill="white"/>
    </g>
    <defs>
        <filter id="filter0_f_11054_5362" x="4.43472" y="9.11475" width="37.3691" height="36.0204" filterUnits="userSpaceOnUse" color-interpolation-filters="sRGB">
            <feFlood flood-opacity="0" result="BackgroundImageFix"/>
            <feBlend mode="normal" in="SourceGraphic" in2="BackgroundImageFix" result="shape"/>
            <feGaussianBlur stdDeviation="5" result="effect1_foregroundBlur_11054_5362"/>
        </filter>
        <filter id="filter1_f_11054_5362" x="6" y="5.27985" width="38" height="35.3" filterUnits="userSpaceOnUse" color-interpolation-filters="sRGB">
            <feFlood flood-opacity="0" result="BackgroundImageFix"/>
            <feBlend mode="normal" in="SourceGraphic" in2="BackgroundImageFix" result="shape"/>
            <feGaussianBlur stdDeviation="5" result="effect1_foregroundBlur_11054_5362"/>
        </filter>
        <linearGradient id="paint0_linear_11054_5362" x1="17.4674" y1="18.4457" x2="30.8696" y2="32.2391" gradientUnits="userSpaceOnUse">
            <stop stop-color="#649A66"/>
            <stop offset="1" stop-color="#2B4CCF"/>
        </linearGradient>
        <linearGradient id="paint1_linear_11054_5362" x1="17.4674" y1="18.4457" x2="30.8696" y2="32.2391" gradientUnits="userSpaceOnUse">
            <stop stop-color="#649A66"/>
            <stop offset="1" stop-color="#2B4CCF"/>
        </linearGradient>
        <linearGradient id="paint2_linear_11054_5362" x1="20.86" y1="34.2699" x2="23.1738" y2="27.5109" gradientUnits="userSpaceOnUse">
            <stop stop-color="#8FEBFF"/>
            <stop offset="1" stop-color="#2B4CCF" stop-opacity="0"/>
        </linearGradient>
        <linearGradient id="paint3_linear_11054_5362" x1="24.1174" y1="16.7888" x2="23.9759" y2="30.7989" gradientUnits="userSpaceOnUse">
            <stop stop-color="#49F150"/>
            <stop offset="1" stop-color="#2B4CCF" stop-opacity="0"/>
        </linearGradient>
        <clipPath id="clip0_11054_5362">
            <rect width="32" height="32" fill="white"/>
        </clipPath>
    </defs>
</svg>
