<svg width="34" height="34" viewBox="0 0 34 34" fill="none" xmlns="http://www.w3.org/2000/svg">
    <g clip-path="url(#clip0_0_1)">
        <path d="M10.0203 16.0011C10.0203 19.2982 12.7027 21.9805 16 21.9805C19.297 21.9805 21.9792 19.2982 21.9792 16.0011C21.9792 12.704 19.297 10.0215 16 10.0215C12.7027 10.0215 10.0203 12.7039 10.0203 16.0011Z" fill="#73A1FB"/>
        <path d="M29.7687 8.1081C29.8153 8.02616 29.8145 7.92554 29.7663 7.84441C28.3735 5.49866 26.3914 3.53372 24.0343 2.16216C21.605 0.74841 18.8267 0.00115967 16 0.00115967C11.1082 0.00115967 6.54935 2.19647 3.49222 6.02416C3.42478 6.10854 3.41597 6.22547 3.46997 6.31897L7.9741 14.1202C8.02128 14.202 8.10841 14.2513 8.20116 14.2513C8.21291 14.2513 8.22485 14.2505 8.23672 14.2488C8.34228 14.2345 8.4286 14.1577 8.45528 14.0545C9.34341 10.6133 12.446 8.20997 16 8.20997C16.2206 8.20997 16.4483 8.22004 16.6773 8.23954C16.6847 8.24029 16.6923 8.2406 16.6997 8.2406H29.5407C29.6351 8.24072 29.7222 8.19016 29.7687 8.1081Z" fill="#DA143A"/>
        <path d="M18.3643 23.5998C18.2992 23.5156 18.1898 23.4794 18.0867 23.5079C17.4092 23.6965 16.7072 23.7921 16 23.7921C12.9951 23.7921 10.2255 22.0297 8.94419 19.3023C8.94106 19.2956 8.93756 19.289 8.93387 19.2825L2.50869 8.15407C2.46187 8.07276 2.37525 8.02295 2.28156 8.02295C2.28112 8.02295 2.28062 8.02295 2.28019 8.02295C2.186 8.02345 2.09919 8.07439 2.05306 8.15639C0.71 10.5396 0 13.2523 0 16.0011C0 19.8574 1.39119 23.5823 3.91731 26.4897C6.41837 29.3681 9.86156 31.2624 13.6129 31.8238C13.6259 31.8258 13.6389 31.8266 13.6518 31.8266C13.7444 31.8266 13.8316 31.7773 13.8789 31.6954L18.3842 23.8919C18.4374 23.7994 18.4296 23.6841 18.3643 23.5998Z" fill="#78B86D"/>
        <path d="M30.6544 9.99084H21.6341C21.5275 9.99084 21.4315 10.0553 21.3914 10.154C21.3511 10.2526 21.3745 10.3659 21.4506 10.4404C22.9598 11.92 23.791 13.8947 23.791 16.001C23.791 17.5956 23.3099 19.1301 22.3995 20.4388C22.3953 20.4449 22.3915 20.4511 22.3878 20.4575L15.9514 31.6053C15.9043 31.687 15.9046 31.7876 15.9521 31.869C15.9993 31.9495 16.0855 31.9988 16.1786 31.9988C16.1795 31.9988 16.1806 31.9988 16.1815 31.9988C20.4171 31.9517 24.3916 30.2665 27.373 27.2542C30.3567 24.2393 32 20.2429 32 16.0011C32 13.9849 31.6294 12.0188 30.8985 10.1573C30.8591 10.0568 30.7623 9.99084 30.6544 9.99084Z" fill="#F1CB30"/>
    </g>
    <g clip-path="url(#clip1_0_1)">
        <circle cx="25" cy="25" r="9" fill="#6347F5"/>
        <path fill-rule="evenodd" clip-rule="evenodd" d="M25.7614 31.1875L29.5 27.4895V20.5H22.5105L18.8125 24.2386H25.7614V31.1875Z" fill="white"/>
    </g>
    <defs>
        <clipPath id="clip0_0_1">
            <rect width="32" height="32" fill="white"/>
        </clipPath>
        <clipPath id="clip1_0_1">
            <rect width="18" height="18" fill="white" transform="translate(16 16)"/>
        </clipPath>
    </defs>
</svg>
