<svg width="34" height="34" viewBox="0 0 34 34" fill="none" xmlns="http://www.w3.org/2000/svg">
<path d="M29.9194 10.3987C29.2669 8.82812 27.9444 7.1325 26.9062 6.59687C27.7512 8.25375 28.24 9.91562 28.4269 11.1556C28.4269 11.1556 28.4269 11.1644 28.43 11.1806C26.7319 6.94687 23.8519 5.23937 21.5 1.5225C21.3806 1.335 21.2619 1.1475 21.1456 0.946872C21.08 0.833747 21.0269 0.731247 20.9806 0.634372C20.8832 0.446436 20.8079 0.247813 20.7563 0.0424972C20.7567 0.0327473 20.7534 0.023193 20.7472 0.0156869C20.741 0.00818078 20.7322 0.00325768 20.7225 0.00187218C20.7133 -0.000624059 20.7036 -0.000624059 20.6944 0.00187218C20.6919 0.00300401 20.6896 0.00447651 20.6875 0.00624718C20.6838 0.00624718 20.68 0.0106222 20.6763 0.0118722L20.6825 0.00374718C16.9094 2.21375 15.6294 6.30187 15.5119 8.3475C14.0041 8.4506 12.5625 9.00579 11.375 9.94062C11.2509 9.83567 11.1211 9.73761 10.9862 9.64687C10.644 8.44891 10.6296 7.18107 10.9444 5.97562C9.40125 6.67875 8.20125 7.78812 7.32875 8.77H7.32188C6.72625 8.01562 6.76813 5.5275 6.80188 5.00812C6.795 4.97562 6.35813 5.235 6.30188 5.27437C5.77629 5.64932 5.28499 6.07014 4.83375 6.53187C4.32025 7.05248 3.85112 7.61506 3.43125 8.21375C2.46525 9.58274 1.78017 11.1296 1.41562 12.765C1.40875 12.7975 1.4025 12.8312 1.39562 12.8644C1.3675 12.9962 1.26562 13.6581 1.2475 13.8019V13.835C1.11469 14.5189 1.03197 15.2116 1 15.9075V15.9844C1 24.2794 7.725 31.0044 16.02 31.0044C23.4494 31.0044 29.6175 25.6106 30.8256 18.5256C30.8506 18.3337 30.8713 18.14 30.8937 17.9462C31.1925 15.37 30.8606 12.6625 29.9194 10.3987ZM12.6069 22.1562C12.6769 22.1894 12.7431 22.2262 12.815 22.2587L12.825 22.265C12.7531 22.23 12.68 22.1937 12.6075 22.1562H12.6069ZM28.4312 11.1875V11.1731V11.1894V11.1875Z" fill="url(#paint0_linear_11054_5362)"/>
<path d="M29.9195 10.3988C29.267 8.82813 27.9445 7.1325 26.9063 6.59688C27.7513 8.25375 28.2401 9.91563 28.427 11.1556V11.1863C29.8445 15.0288 29.072 18.9363 27.9595 21.3238C26.2382 25.0175 22.0713 28.8038 15.5482 28.6194C8.50633 28.4194 2.2982 23.1875 1.13883 16.3406C0.927578 15.26 1.13883 14.7119 1.24508 13.835C1.1157 14.5106 1.06633 14.7063 1.00195 15.9075V15.9844C1.00195 24.2794 7.72695 31.0044 16.022 31.0044C23.4513 31.0044 29.6195 25.6106 30.8276 18.5256C30.8526 18.3338 30.8732 18.14 30.8957 17.9463C31.1926 15.37 30.8607 12.6625 29.9195 10.3988Z" fill="url(#paint1_radial_11054_5362)"/>
<path d="M29.9195 10.3988C29.267 8.82813 27.9445 7.1325 26.9063 6.59688C27.7513 8.25375 28.2401 9.91563 28.427 11.1556V11.1863C29.8445 15.0288 29.072 18.9363 27.9595 21.3238C26.2382 25.0175 22.0713 28.8038 15.5482 28.6194C8.50633 28.4194 2.2982 23.1875 1.13883 16.3406C0.927578 15.26 1.13883 14.7119 1.24508 13.835C1.1157 14.5106 1.06633 14.7063 1.00195 15.9075V15.9844C1.00195 24.2794 7.72695 31.0044 16.022 31.0044C23.4513 31.0044 29.6195 25.6106 30.8276 18.5256C30.8526 18.3338 30.8732 18.14 30.8957 17.9463C31.1926 15.37 30.8607 12.6625 29.9195 10.3988Z" fill="url(#paint2_radial_11054_5362)"/>
<path d="M22.62 12.1638C22.6531 12.1869 22.6825 12.21 22.7137 12.2331C22.3368 11.5638 21.8671 10.9511 21.3187 10.4131C16.65 5.74438 20.095 0.289379 20.6756 0.0118787L20.6819 0.00375366C16.9087 2.21375 15.6287 6.30188 15.5112 8.3475C15.6862 8.33563 15.8606 8.32063 16.0387 8.32063C18.8544 8.32063 21.3069 9.86938 22.62 12.1638Z" fill="url(#paint3_radial_11054_5362)"/>
<path d="M16.0482 13.0962C16.0238 13.4712 14.7038 14.7587 14.242 14.7587C9.97071 14.7587 9.27759 17.3425 9.27759 17.3425C9.46509 19.5187 10.9813 21.3106 12.8157 22.2587C12.8995 22.3019 12.9838 22.3406 13.0657 22.3794C13.2126 22.4419 13.3601 22.5044 13.507 22.56C14.136 22.7819 14.7948 22.9083 15.4613 22.935C22.9476 23.2862 24.3988 13.9837 18.9957 11.2825C20.3788 11.0419 21.8151 11.5987 22.617 12.1619C21.3045 9.8675 18.8513 8.31875 16.0357 8.31875C15.8576 8.31875 15.6832 8.33375 15.5082 8.34562C14.0016 8.45001 12.5613 9.00582 11.3751 9.94062C11.6045 10.135 11.8632 10.3937 12.4076 10.93C13.4288 11.9375 16.0426 12.9744 16.0482 13.0962Z" fill="url(#paint4_radial_11054_5362)"/>
<path d="M16.0482 13.0962C16.0238 13.4712 14.7038 14.7587 14.242 14.7587C9.97071 14.7587 9.27759 17.3425 9.27759 17.3425C9.46509 19.5187 10.9813 21.3106 12.8157 22.2587C12.8995 22.3019 12.9838 22.3406 13.0657 22.3794C13.2126 22.4419 13.3601 22.5044 13.507 22.56C14.136 22.7819 14.7948 22.9083 15.4613 22.935C22.9476 23.2862 24.3988 13.9837 18.9957 11.2825C20.3788 11.0419 21.8151 11.5987 22.617 12.1619C21.3045 9.8675 18.8513 8.31875 16.0357 8.31875C15.8576 8.31875 15.6832 8.33375 15.5082 8.34562C14.0016 8.45001 12.5613 9.00582 11.3751 9.94062C11.6045 10.135 11.8632 10.3937 12.4076 10.93C13.4288 11.9375 16.0426 12.9744 16.0482 13.0962Z" fill="url(#paint5_radial_11054_5362)"/>
<path d="M10.6768 9.44125C10.7987 9.52 10.8987 9.58625 10.9893 9.64687C10.6471 8.44892 10.6326 7.18108 10.9474 5.97562C9.40429 6.67875 8.20429 7.78812 7.33179 8.77C7.40241 8.76812 9.58116 8.72875 10.6768 9.44125Z" fill="url(#paint6_radial_11054_5362)"/>
<path d="M1.13872 16.3406C2.2981 23.1875 8.50622 28.4194 15.5531 28.6194C22.0762 28.8037 26.2406 25.0175 27.9643 21.3237C29.0768 18.9356 29.8493 15.0287 28.4318 11.1862V11.1575C28.4318 11.1612 28.4318 11.1662 28.435 11.1825C28.9675 14.6619 27.1981 18.0325 24.4318 20.3119C24.429 20.3183 24.4263 20.3247 24.4237 20.3312C19.0331 24.7206 13.875 22.9794 12.8306 22.2687C12.7581 22.2337 12.685 22.1975 12.6125 22.16C9.46935 20.66 8.17122 17.7944 8.44935 15.3387C5.79622 15.3387 4.89122 13.1 4.89122 13.1C4.89122 13.1 7.27372 11.4012 10.4137 12.8787C13.3218 14.2475 16.0531 13.1006 16.0531 13.1C16.0475 12.9781 13.4337 11.9381 12.4143 10.9337C11.87 10.3975 11.6112 10.1387 11.3818 9.94437C11.2577 9.83942 11.128 9.74136 10.9931 9.65062C10.9037 9.58812 10.8056 9.52562 10.6806 9.445C9.58497 8.7325 7.40622 8.77187 7.33435 8.77375H7.32747C6.73185 8.01937 6.77372 5.53125 6.80747 5.01187C6.8006 4.97937 6.36372 5.23875 6.30747 5.27812C5.78189 5.65307 5.29059 6.07389 4.83935 6.53562C4.32585 7.05624 3.85672 7.61881 3.43685 8.2175C2.47085 9.5865 1.78577 11.1334 1.42122 12.7687C1.40935 12.7975 0.874974 15.1306 1.13872 16.3406Z" fill="url(#paint7_radial_11054_5362)"/>
<path d="M21.3188 10.4131C21.8672 10.9511 22.3368 11.5638 22.7138 12.2331C22.7919 12.2918 22.867 12.3544 22.9388 12.4206C26.3438 15.5556 24.5625 19.9937 24.4269 20.3125C27.1932 18.0331 28.9625 14.6625 28.43 11.1831C26.7319 6.94687 23.8519 5.23937 21.5 1.5225C21.3807 1.335 21.2619 1.1475 21.1457 0.946872C21.08 0.833747 21.0269 0.731247 20.9807 0.634372C20.8832 0.446436 20.8079 0.247813 20.7563 0.0424972C20.7567 0.0327473 20.7535 0.023193 20.7472 0.0156869C20.741 0.00818078 20.7322 0.00325768 20.7225 0.00187218C20.7133 -0.000624059 20.7036 -0.000624059 20.6944 0.00187218C20.6919 0.00300401 20.6896 0.00447651 20.6875 0.00624718C20.6838 0.00624718 20.68 0.0106222 20.6763 0.0118722C20.095 0.289372 16.65 5.74437 21.3188 10.4131Z" fill="url(#paint8_radial_11054_5362)"/>
<path d="M22.9374 12.4175C22.8656 12.3512 22.7905 12.2887 22.7124 12.23C22.6818 12.2069 22.6499 12.1837 22.6186 12.1606C21.8168 11.5981 20.3805 11.0406 18.9974 11.2812C24.3999 13.9825 22.9493 23.285 15.463 22.9337C14.7965 22.907 14.1377 22.7806 13.5086 22.5587C13.3618 22.5037 13.2143 22.4431 13.0674 22.3781C12.9824 22.3394 12.898 22.3006 12.8174 22.2575L12.8274 22.2637C13.8718 22.9762 19.0299 24.7175 24.4205 20.3262C24.4205 20.3262 24.4236 20.3181 24.4286 20.3069C24.5624 19.9937 26.3436 15.5556 22.9374 12.4175Z" fill="url(#paint9_radial_11054_5362)"/>
<path d="M9.27748 17.3425C9.27748 17.3425 9.97061 14.7587 14.2419 14.7587C14.7037 14.7587 16.0237 13.47 16.0481 13.0962C16.0725 12.7225 13.3169 14.2437 10.4087 12.875C7.26873 11.3975 4.88623 13.0962 4.88623 13.0962C4.88623 13.0962 5.79123 15.335 8.44436 15.335C8.16623 17.7906 9.46436 20.6537 12.6075 22.1562C12.6775 22.1894 12.7437 22.2263 12.8156 22.2588C10.9812 21.3125 9.46686 19.5188 9.27748 17.3425Z" fill="url(#paint10_radial_11054_5362)"/>
<path d="M29.9194 10.3987C29.2669 8.82812 27.9444 7.1325 26.9062 6.59687C27.7512 8.25375 28.24 9.91562 28.4269 11.1556C28.4269 11.1556 28.4269 11.1644 28.43 11.1806C26.7319 6.94687 23.8519 5.23937 21.5 1.5225C21.3806 1.335 21.2619 1.1475 21.1456 0.946872C21.08 0.833747 21.0269 0.731247 20.9806 0.634372C20.8832 0.446436 20.8079 0.247813 20.7563 0.0424972C20.7567 0.0327473 20.7534 0.023193 20.7472 0.0156869C20.741 0.00818078 20.7322 0.00325768 20.7225 0.00187218C20.7133 -0.000624059 20.7036 -0.000624059 20.6944 0.00187218C20.6919 0.00300401 20.6896 0.00447651 20.6875 0.00624718C20.6838 0.00624718 20.68 0.0106222 20.6763 0.0118722L20.6825 0.00374718C16.9094 2.21375 15.6294 6.30187 15.5119 8.3475C15.6869 8.33562 15.8612 8.32062 16.0394 8.32062C18.855 8.32062 21.3075 9.86937 22.6206 12.1637C21.8188 11.6012 20.3825 11.0437 18.9994 11.2844C24.4019 13.9856 22.9513 23.2881 15.465 22.9369C14.7985 22.9102 14.1397 22.7838 13.5106 22.5619C13.3637 22.5069 13.2163 22.4462 13.0694 22.3812C12.9844 22.3425 12.9 22.3037 12.8194 22.2606L12.8294 22.2669C12.7569 22.2319 12.6838 22.1956 12.6112 22.1581C12.6812 22.1912 12.7475 22.2281 12.8194 22.2606C10.9812 21.3125 9.46688 19.5187 9.2775 17.3425C9.2775 17.3425 9.97062 14.7587 14.2419 14.7587C14.7037 14.7587 16.0237 13.47 16.0481 13.0962C16.0425 12.9744 13.4288 11.9344 12.4094 10.93C11.865 10.3937 11.6062 10.135 11.3769 9.94062C11.2528 9.83567 11.123 9.73761 10.9881 9.64687C10.6459 8.44891 10.6315 7.18107 10.9462 5.97562C9.40312 6.67875 8.20312 7.78812 7.33063 8.77H7.32375C6.72813 8.01562 6.77 5.5275 6.80375 5.00812C6.79688 4.97562 6.36 5.235 6.30375 5.27437C5.77817 5.64932 5.28687 6.07014 4.83563 6.53187C4.32213 7.05248 3.853 7.61506 3.43313 8.21375C2.46713 9.58274 1.78205 11.1296 1.4175 12.765C1.41063 12.7975 1.40438 12.8312 1.3975 12.8644C1.36938 12.9962 1.24188 13.6675 1.22438 13.8112C1.22438 13.8225 1.22438 13.8006 1.22438 13.8112C1.10735 14.5048 1.03242 15.2049 1 15.9075V15.9844C1 24.2794 7.725 31.0044 16.02 31.0044C23.4494 31.0044 29.6175 25.6106 30.8256 18.5256C30.8506 18.3337 30.8713 18.14 30.8937 17.9462C31.1925 15.37 30.8606 12.6625 29.9194 10.3987ZM28.4294 11.17V11.1862V11.17Z" fill="url(#paint11_linear_11054_5362)"/>
<circle cx="25" cy="25" r="9" fill="url(#paint12_linear_11054_5362)"/>
<mask id="mask0_11054_5362" style="mask-type:alpha" maskUnits="userSpaceOnUse" x="16" y="16" width="18" height="18">
<circle cx="25" cy="25" r="9" fill="url(#paint13_linear_11054_5362)"/>
</mask>
<g mask="url(#mask0_11054_5362)">
<g filter="url(#filter0_f_11054_5362)">
<path d="M20.4103 19.241C24.966 18.4628 29.8719 21.3617 31.368 25.7159C32.864 30.07 30.3837 34.2307 25.828 35.0089C21.2723 35.7871 16.3664 32.8882 14.8704 28.5341C13.3743 24.1799 15.8546 20.0193 20.4103 19.241Z" fill="url(#paint14_linear_11054_5362)"/>
</g>
<g filter="url(#filter1_f_11054_5362)">
<path d="M31.2879 28.4031C27.7317 31.3549 22.0336 31.2973 18.5609 28.2746C15.0882 25.2518 15.1559 20.4084 18.7121 17.4566C22.2683 14.5048 27.9664 14.5623 31.4391 17.5851C34.9118 20.6079 34.8441 25.4513 31.2879 28.4031Z" fill="url(#paint15_linear_11054_5362)"/>
</g>
<path d="M28.523 20.5458C28.2382 20.4996 27.9464 20.5259 27.6744 20.6221C27.4025 20.7184 27.1591 20.8815 26.9667 21.0965C26.5996 21.508 26.4853 22.0438 26.5735 22.5806C26.6534 23.0648 26.7593 23.5562 26.7832 24.0227C26.8165 24.7252 26.7096 25.4273 26.4687 26.088C26.2507 26.6898 25.9385 27.1535 25.2724 27.2561C25.223 27.2638 25.0433 27.2694 24.9923 27.2722C24.9413 27.2749 24.7799 27.2644 24.73 27.2566C24.0644 27.154 23.7511 26.6904 23.5337 26.0886C23.2927 25.4278 23.1858 24.7257 23.2192 24.0232C23.243 23.5584 23.349 23.0665 23.4288 22.5812C23.517 22.0443 23.4028 21.5086 23.0356 21.097C22.8432 20.882 22.5999 20.7189 22.3279 20.6227C22.0559 20.5264 21.7641 20.5002 21.4793 20.5463C20.6247 20.6866 20.0562 21.4437 20.0501 22.2396C20.0477 22.5458 20.1309 22.8466 20.2902 23.1081C20.5559 23.5462 20.9918 23.8657 21.3723 24.1974C21.6241 24.4192 22.0595 25.0487 22.273 25.7309C22.4022 26.1441 22.5076 26.5628 22.6119 26.9854C22.7583 27.5744 22.9596 28.8756 23.0922 29.4662C23.3567 30.6487 24.1665 30.9165 24.9779 30.9437H25.0067C25.8181 30.9165 26.6412 30.6481 26.9057 29.4657C27.0377 28.875 27.2385 27.5733 27.386 26.9849C27.4909 26.5645 27.5957 26.1435 27.7249 25.7303C27.9384 25.0481 28.3738 24.4164 28.6256 24.1968C29.0061 23.864 29.4414 23.5457 29.7077 23.1075C29.8677 22.8464 29.9516 22.5458 29.95 22.2396C29.945 21.4426 29.3766 20.6866 28.523 20.5458Z" fill="white"/>
</g>
<defs>
<filter id="filter0_f_11054_5362" x="4.43457" y="9.11475" width="37.3691" height="36.0204" filterUnits="userSpaceOnUse" color-interpolation-filters="sRGB">
<feFlood flood-opacity="0" result="BackgroundImageFix"/>
<feBlend mode="normal" in="SourceGraphic" in2="BackgroundImageFix" result="shape"/>
<feGaussianBlur stdDeviation="5" result="effect1_foregroundBlur_11054_5362"/>
</filter>
<filter id="filter1_f_11054_5362" x="6" y="5.27985" width="38" height="35.3" filterUnits="userSpaceOnUse" color-interpolation-filters="sRGB">
<feFlood flood-opacity="0" result="BackgroundImageFix"/>
<feBlend mode="normal" in="SourceGraphic" in2="BackgroundImageFix" result="shape"/>
<feGaussianBlur stdDeviation="5" result="effect1_foregroundBlur_11054_5362"/>
</filter>
<linearGradient id="paint0_linear_11054_5362" x1="27.9313" y1="4.80312" x2="2.99625" y2="28.8606" gradientUnits="userSpaceOnUse">
<stop offset="0.05" stop-color="#FFF44F"/>
<stop offset="0.11" stop-color="#FFE847"/>
<stop offset="0.22" stop-color="#FFC830"/>
<stop offset="0.37" stop-color="#FF980E"/>
<stop offset="0.4" stop-color="#FF8B16"/>
<stop offset="0.46" stop-color="#FF672A"/>
<stop offset="0.53" stop-color="#FF3647"/>
<stop offset="0.7" stop-color="#E31587"/>
</linearGradient>
<radialGradient id="paint1_radial_11054_5362" cx="0" cy="0" r="1" gradientUnits="userSpaceOnUse" gradientTransform="translate(26.7788 3.44125) scale(31.3131 31.3131)">
<stop offset="0.13" stop-color="#FFBD4F"/>
<stop offset="0.19" stop-color="#FFAC31"/>
<stop offset="0.25" stop-color="#FF9D17"/>
<stop offset="0.28" stop-color="#FF980E"/>
<stop offset="0.4" stop-color="#FF563B"/>
<stop offset="0.47" stop-color="#FF3750"/>
<stop offset="0.71" stop-color="#F5156C"/>
<stop offset="0.78" stop-color="#EB0878"/>
<stop offset="0.86" stop-color="#E50080"/>
</radialGradient>
<radialGradient id="paint2_radial_11054_5362" cx="0" cy="0" r="1" gradientUnits="userSpaceOnUse" gradientTransform="translate(15.337 16.2425) scale(31.3131 31.3131)">
<stop offset="0.3" stop-color="#960E18"/>
<stop offset="0.35" stop-color="#B11927" stop-opacity="0.74"/>
<stop offset="0.43" stop-color="#DB293D" stop-opacity="0.34"/>
<stop offset="0.5" stop-color="#F5334B" stop-opacity="0.09"/>
<stop offset="0.53" stop-color="#FF3750" stop-opacity="0"/>
</radialGradient>
<radialGradient id="paint3_radial_11054_5362" cx="0" cy="0" r="1" gradientUnits="userSpaceOnUse" gradientTransform="translate(19.1125 -3.665) scale(22.685 22.685)">
<stop offset="0.13" stop-color="#FFF44F"/>
<stop offset="0.25" stop-color="#FFDC3E"/>
<stop offset="0.51" stop-color="#FF9D12"/>
<stop offset="0.53" stop-color="#FF980E"/>
</radialGradient>
<radialGradient id="paint4_radial_11054_5362" cx="0" cy="0" r="1" gradientUnits="userSpaceOnUse" gradientTransform="translate(11.8738 24.4219) scale(14.9094)">
<stop offset="0.35" stop-color="#3A8EE6"/>
<stop offset="0.47" stop-color="#5C79F0"/>
<stop offset="0.67" stop-color="#9059FF"/>
<stop offset="1" stop-color="#C139E6"/>
</radialGradient>
<radialGradient id="paint5_radial_11054_5362" cx="0" cy="0" r="1" gradientUnits="userSpaceOnUse" gradientTransform="translate(15.7867 12.521) rotate(-13.8972) scale(7.89907 9.27953)">
<stop offset="0.21" stop-color="#9059FF" stop-opacity="0"/>
<stop offset="0.28" stop-color="#8C4FF3" stop-opacity="0.06"/>
<stop offset="0.75" stop-color="#7716A8" stop-opacity="0.45"/>
<stop offset="0.97" stop-color="#6E008B" stop-opacity="0.6"/>
</radialGradient>
<radialGradient id="paint6_radial_11054_5362" cx="0" cy="0" r="1" gradientUnits="userSpaceOnUse" gradientTransform="translate(14.9412 2.16) scale(10.7263)">
<stop stop-color="#FFE226"/>
<stop offset="0.12" stop-color="#FFDB27"/>
<stop offset="0.3" stop-color="#FFC82A"/>
<stop offset="0.5" stop-color="#FFA930"/>
<stop offset="0.73" stop-color="#FF7E37"/>
<stop offset="0.79" stop-color="#FF7139"/>
</radialGradient>
<radialGradient id="paint7_radial_11054_5362" cx="0" cy="0" r="1" gradientUnits="userSpaceOnUse" gradientTransform="translate(23.3725 -4.64312) scale(45.7631 45.7631)">
<stop offset="0.11" stop-color="#FFF44F"/>
<stop offset="0.46" stop-color="#FF980E"/>
<stop offset="0.62" stop-color="#FF5634"/>
<stop offset="0.72" stop-color="#FF3647"/>
<stop offset="0.9" stop-color="#E31587"/>
</radialGradient>
<radialGradient id="paint8_radial_11054_5362" cx="0" cy="0" r="1" gradientUnits="userSpaceOnUse" gradientTransform="translate(18.949 0.35681) rotate(84.2321) scale(33.3568 21.9155)">
<stop stop-color="#FFF44F"/>
<stop offset="0.06" stop-color="#FFE847"/>
<stop offset="0.17" stop-color="#FFC830"/>
<stop offset="0.3" stop-color="#FF980E"/>
<stop offset="0.36" stop-color="#FF8B16"/>
<stop offset="0.45" stop-color="#FF672A"/>
<stop offset="0.57" stop-color="#FF3647"/>
<stop offset="0.74" stop-color="#E31587"/>
</radialGradient>
<radialGradient id="paint9_radial_11054_5362" cx="0" cy="0" r="1" gradientUnits="userSpaceOnUse" gradientTransform="translate(14.6886 6.1325) scale(28.57)">
<stop offset="0.14" stop-color="#FFF44F"/>
<stop offset="0.48" stop-color="#FF980E"/>
<stop offset="0.59" stop-color="#FF5634"/>
<stop offset="0.66" stop-color="#FF3647"/>
<stop offset="0.9" stop-color="#E31587"/>
</radialGradient>
<radialGradient id="paint10_radial_11054_5362" cx="0" cy="0" r="1" gradientUnits="userSpaceOnUse" gradientTransform="translate(22.2306 7.805) scale(31.27 31.27)">
<stop offset="0.09" stop-color="#FFF44F"/>
<stop offset="0.23" stop-color="#FFE141"/>
<stop offset="0.51" stop-color="#FFAF1E"/>
<stop offset="0.63" stop-color="#FF980E"/>
</radialGradient>
<linearGradient id="paint11_linear_11054_5362" x1="27.6312" y1="4.67437" x2="6.415" y2="25.8912" gradientUnits="userSpaceOnUse">
<stop offset="0.17" stop-color="#FFF44F" stop-opacity="0.8"/>
<stop offset="0.27" stop-color="#FFF44F" stop-opacity="0.63"/>
<stop offset="0.49" stop-color="#FFF44F" stop-opacity="0.22"/>
<stop offset="0.6" stop-color="#FFF44F" stop-opacity="0"/>
</linearGradient>
<linearGradient id="paint12_linear_11054_5362" x1="17.4674" y1="18.4457" x2="30.8696" y2="32.2391" gradientUnits="userSpaceOnUse">
<stop stop-color="#649A66"/>
<stop offset="1" stop-color="#2B4CCF"/>
</linearGradient>
<linearGradient id="paint13_linear_11054_5362" x1="17.4674" y1="18.4457" x2="30.8696" y2="32.2391" gradientUnits="userSpaceOnUse">
<stop stop-color="#649A66"/>
<stop offset="1" stop-color="#2B4CCF"/>
</linearGradient>
<linearGradient id="paint14_linear_11054_5362" x1="20.8599" y1="34.2699" x2="23.1737" y2="27.5109" gradientUnits="userSpaceOnUse">
<stop stop-color="#8FEBFF"/>
<stop offset="1" stop-color="#2B4CCF" stop-opacity="0"/>
</linearGradient>
<linearGradient id="paint15_linear_11054_5362" x1="24.1174" y1="16.7888" x2="23.9759" y2="30.7989" gradientUnits="userSpaceOnUse">
<stop stop-color="#49F150"/>
<stop offset="1" stop-color="#2B4CCF" stop-opacity="0"/>
</linearGradient>
</defs>
</svg>
