<svg width="34" height="34" viewBox="0 0 34 34" fill="none" xmlns="http://www.w3.org/2000/svg">
<path d="M29.9194 10.3988C29.2669 8.82813 27.9444 7.1325 26.9062 6.59688C27.7512 8.25375 28.24 9.91563 28.4269 11.1556C28.4269 11.1556 28.4269 11.1644 28.43 11.1806C26.7319 6.94688 23.8519 5.23938 21.5 1.5225C21.3806 1.335 21.2619 1.1475 21.1456 0.946876C21.08 0.833751 21.0269 0.731251 20.9806 0.634376C20.8832 0.44644 20.8079 0.247817 20.7563 0.042501C20.7567 0.0327511 20.7534 0.0231968 20.7472 0.0156907C20.741 0.0081846 20.7322 0.0032615 20.7225 0.00187599C20.7133 -0.000620244 20.7036 -0.000620244 20.6944 0.00187599C20.6919 0.00300783 20.6896 0.00448033 20.6875 0.00625099C20.6838 0.00625099 20.68 0.010626 20.6763 0.011876L20.6825 0.00375099C16.9094 2.21375 15.6294 6.30188 15.5119 8.3475C14.0041 8.45061 12.5625 9.0058 11.375 9.94063C11.2509 9.83567 11.1211 9.73761 10.9862 9.64688C10.644 8.44892 10.6296 7.18108 10.9444 5.97563C9.40125 6.67875 8.20125 7.78813 7.32875 8.77H7.32188C6.72625 8.01563 6.76813 5.5275 6.80188 5.00813C6.795 4.97563 6.35813 5.235 6.30188 5.27438C5.77629 5.64932 5.28499 6.07014 4.83375 6.53188C4.32025 7.05249 3.85112 7.61507 3.43125 8.21375C2.46525 9.58275 1.78017 11.1296 1.41562 12.765C1.40875 12.7975 1.4025 12.8313 1.39562 12.8644C1.3675 12.9963 1.26562 13.6581 1.2475 13.8019V13.835C1.11469 14.5189 1.03197 15.2116 1 15.9075V15.9844C1 24.2794 7.725 31.0044 16.02 31.0044C23.4494 31.0044 29.6175 25.6106 30.8256 18.5256C30.8506 18.3338 30.8713 18.14 30.8937 17.9463C31.1925 15.37 30.8606 12.6625 29.9194 10.3988ZM12.6069 22.1563C12.6769 22.1894 12.7431 22.2263 12.815 22.2588L12.825 22.265C12.7531 22.23 12.68 22.1938 12.6075 22.1563H12.6069ZM28.4312 11.1875V11.1731V11.1894V11.1875Z" fill="url(#paint0_linear_11054_5362)"/>
<path d="M29.9195 10.3987C29.267 8.82812 27.9445 7.1325 26.9063 6.59687C27.7513 8.25375 28.2401 9.91562 28.427 11.1556V11.1862C29.8445 15.0287 29.072 18.9362 27.9595 21.3237C26.2382 25.0175 22.0713 28.8037 15.5482 28.6194C8.50633 28.4194 2.2982 23.1875 1.13883 16.3406C0.927578 15.26 1.13883 14.7119 1.24508 13.835C1.1157 14.5106 1.06633 14.7062 1.00195 15.9075V15.9844C1.00195 24.2794 7.72695 31.0044 16.022 31.0044C23.4513 31.0044 29.6195 25.6106 30.8276 18.5256C30.8526 18.3337 30.8732 18.14 30.8957 17.9462C31.1926 15.37 30.8607 12.6625 29.9195 10.3987Z" fill="url(#paint1_radial_11054_5362)"/>
<path d="M29.9195 10.3987C29.267 8.82812 27.9445 7.1325 26.9063 6.59687C27.7513 8.25375 28.2401 9.91562 28.427 11.1556V11.1862C29.8445 15.0287 29.072 18.9362 27.9595 21.3237C26.2382 25.0175 22.0713 28.8037 15.5482 28.6194C8.50633 28.4194 2.2982 23.1875 1.13883 16.3406C0.927578 15.26 1.13883 14.7119 1.24508 13.835C1.1157 14.5106 1.06633 14.7062 1.00195 15.9075V15.9844C1.00195 24.2794 7.72695 31.0044 16.022 31.0044C23.4513 31.0044 29.6195 25.6106 30.8276 18.5256C30.8526 18.3337 30.8732 18.14 30.8957 17.9462C31.1926 15.37 30.8607 12.6625 29.9195 10.3987Z" fill="url(#paint2_radial_11054_5362)"/>
<path d="M22.62 12.1637C22.6531 12.1869 22.6825 12.21 22.7137 12.2331C22.3368 11.5638 21.8671 10.9511 21.3187 10.4131C16.65 5.74438 20.095 0.289375 20.6756 0.0118748L20.6819 0.00374985C16.9087 2.21375 15.6287 6.30188 15.5112 8.3475C15.6862 8.33562 15.8606 8.32063 16.0387 8.32063C18.8544 8.32063 21.3069 9.86938 22.62 12.1637Z" fill="url(#paint3_radial_11054_5362)"/>
<path d="M16.0482 13.0962C16.0238 13.4712 14.7038 14.7587 14.242 14.7587C9.97071 14.7587 9.27759 17.3425 9.27759 17.3425C9.46509 19.5187 10.9813 21.3106 12.8157 22.2587C12.8995 22.3019 12.9838 22.3406 13.0657 22.3794C13.2126 22.4419 13.3601 22.5044 13.507 22.56C14.136 22.7819 14.7948 22.9083 15.4613 22.935C22.9476 23.2862 24.3988 13.9837 18.9957 11.2825C20.3788 11.0419 21.8151 11.5987 22.617 12.1619C21.3045 9.8675 18.8513 8.31875 16.0357 8.31875C15.8576 8.31875 15.6832 8.33375 15.5082 8.34562C14.0016 8.45001 12.5613 9.00582 11.3751 9.94062C11.6045 10.135 11.8632 10.3937 12.4076 10.93C13.4288 11.9375 16.0426 12.9744 16.0482 13.0962Z" fill="url(#paint4_radial_11054_5362)"/>
<path d="M16.0482 13.0962C16.0238 13.4712 14.7038 14.7587 14.242 14.7587C9.97071 14.7587 9.27759 17.3425 9.27759 17.3425C9.46509 19.5187 10.9813 21.3106 12.8157 22.2587C12.8995 22.3019 12.9838 22.3406 13.0657 22.3794C13.2126 22.4419 13.3601 22.5044 13.507 22.56C14.136 22.7819 14.7948 22.9083 15.4613 22.935C22.9476 23.2862 24.3988 13.9837 18.9957 11.2825C20.3788 11.0419 21.8151 11.5987 22.617 12.1619C21.3045 9.8675 18.8513 8.31875 16.0357 8.31875C15.8576 8.31875 15.6832 8.33375 15.5082 8.34562C14.0016 8.45001 12.5613 9.00582 11.3751 9.94062C11.6045 10.135 11.8632 10.3937 12.4076 10.93C13.4288 11.9375 16.0426 12.9744 16.0482 13.0962Z" fill="url(#paint5_radial_11054_5362)"/>
<path d="M10.6768 9.44125C10.7987 9.52 10.8987 9.58625 10.9893 9.64687C10.6471 8.44892 10.6326 7.18108 10.9474 5.97562C9.40429 6.67875 8.20429 7.78812 7.33179 8.77C7.40241 8.76812 9.58116 8.72875 10.6768 9.44125Z" fill="url(#paint6_radial_11054_5362)"/>
<path d="M1.13872 16.3406C2.2981 23.1875 8.50622 28.4194 15.5531 28.6194C22.0762 28.8037 26.2406 25.0175 27.9643 21.3237C29.0768 18.9356 29.8493 15.0287 28.4318 11.1862V11.1575C28.4318 11.1612 28.4318 11.1662 28.435 11.1825C28.9675 14.6619 27.1981 18.0325 24.4318 20.3119C24.429 20.3183 24.4263 20.3247 24.4237 20.3312C19.0331 24.7206 13.875 22.9794 12.8306 22.2687C12.7581 22.2337 12.685 22.1975 12.6125 22.16C9.46935 20.66 8.17122 17.7944 8.44935 15.3387C5.79622 15.3387 4.89122 13.1 4.89122 13.1C4.89122 13.1 7.27372 11.4012 10.4137 12.8787C13.3218 14.2475 16.0531 13.1006 16.0531 13.1C16.0475 12.9781 13.4337 11.9381 12.4143 10.9337C11.87 10.3975 11.6112 10.1387 11.3818 9.94437C11.2577 9.83942 11.128 9.74136 10.9931 9.65062C10.9037 9.58812 10.8056 9.52562 10.6806 9.445C9.58497 8.7325 7.40622 8.77187 7.33435 8.77375H7.32747C6.73185 8.01937 6.77372 5.53125 6.80747 5.01187C6.8006 4.97937 6.36372 5.23875 6.30747 5.27812C5.78189 5.65307 5.29059 6.07389 4.83935 6.53562C4.32585 7.05624 3.85672 7.61881 3.43685 8.2175C2.47085 9.5865 1.78577 11.1334 1.42122 12.7687C1.40935 12.7975 0.874974 15.1306 1.13872 16.3406Z" fill="url(#paint7_radial_11054_5362)"/>
<path d="M21.3188 10.4131C21.8672 10.9511 22.3368 11.5638 22.7138 12.2331C22.7919 12.2918 22.867 12.3544 22.9388 12.4206C26.3438 15.5556 24.5625 19.9938 24.4269 20.3125C27.1932 18.0331 28.9625 14.6625 28.43 11.1831C26.7319 6.94688 23.8519 5.23938 21.5 1.5225C21.3807 1.335 21.2619 1.1475 21.1457 0.946876C21.08 0.833751 21.0269 0.731251 20.9807 0.634376C20.8832 0.44644 20.8079 0.247817 20.7563 0.042501C20.7567 0.0327511 20.7535 0.0231968 20.7472 0.0156907C20.741 0.0081846 20.7322 0.0032615 20.7225 0.00187599C20.7133 -0.000620244 20.7036 -0.000620244 20.6944 0.00187599C20.6919 0.00300783 20.6896 0.00448033 20.6875 0.00625099C20.6838 0.00625099 20.68 0.010626 20.6763 0.011876C20.095 0.289376 16.65 5.74438 21.3188 10.4131Z" fill="url(#paint8_radial_11054_5362)"/>
<path d="M22.9374 12.4175C22.8656 12.3512 22.7905 12.2887 22.7124 12.23C22.6818 12.2069 22.6499 12.1837 22.6186 12.1606C21.8168 11.5981 20.3805 11.0406 18.9974 11.2812C24.3999 13.9825 22.9493 23.285 15.463 22.9337C14.7965 22.907 14.1377 22.7806 13.5086 22.5587C13.3618 22.5037 13.2143 22.4431 13.0674 22.3781C12.9824 22.3394 12.898 22.3006 12.8174 22.2575L12.8274 22.2637C13.8718 22.9762 19.0299 24.7175 24.4205 20.3262C24.4205 20.3262 24.4236 20.3181 24.4286 20.3069C24.5624 19.9937 26.3436 15.5556 22.9374 12.4175Z" fill="url(#paint9_radial_11054_5362)"/>
<path d="M9.27748 17.3425C9.27748 17.3425 9.97061 14.7587 14.2419 14.7587C14.7037 14.7587 16.0237 13.47 16.0481 13.0962C16.0725 12.7225 13.3169 14.2437 10.4087 12.875C7.26873 11.3975 4.88623 13.0962 4.88623 13.0962C4.88623 13.0962 5.79123 15.335 8.44436 15.335C8.16623 17.7906 9.46436 20.6537 12.6075 22.1562C12.6775 22.1894 12.7437 22.2263 12.8156 22.2588C10.9812 21.3125 9.46686 19.5188 9.27748 17.3425Z" fill="url(#paint10_radial_11054_5362)"/>
<path d="M29.9194 10.3988C29.2669 8.82813 27.9444 7.1325 26.9062 6.59688C27.7512 8.25375 28.24 9.91563 28.4269 11.1556C28.4269 11.1556 28.4269 11.1644 28.43 11.1806C26.7319 6.94688 23.8519 5.23938 21.5 1.5225C21.3806 1.335 21.2619 1.1475 21.1456 0.946876C21.08 0.833751 21.0269 0.731251 20.9806 0.634376C20.8832 0.44644 20.8079 0.247817 20.7563 0.042501C20.7567 0.0327511 20.7534 0.0231968 20.7472 0.0156907C20.741 0.0081846 20.7322 0.0032615 20.7225 0.00187599C20.7133 -0.000620244 20.7036 -0.000620244 20.6944 0.00187599C20.6919 0.00300783 20.6896 0.00448033 20.6875 0.00625099C20.6838 0.00625099 20.68 0.010626 20.6763 0.011876L20.6825 0.00375099C16.9094 2.21375 15.6294 6.30188 15.5119 8.3475C15.6869 8.33563 15.8612 8.32063 16.0394 8.32063C18.855 8.32063 21.3075 9.86938 22.6206 12.1638C21.8188 11.6013 20.3825 11.0438 18.9994 11.2844C24.4019 13.9856 22.9513 23.2881 15.465 22.9369C14.7985 22.9102 14.1397 22.7838 13.5106 22.5619C13.3637 22.5069 13.2163 22.4463 13.0694 22.3813C12.9844 22.3425 12.9 22.3038 12.8194 22.2606L12.8294 22.2669C12.7569 22.2319 12.6838 22.1956 12.6112 22.1581C12.6812 22.1913 12.7475 22.2281 12.8194 22.2606C10.9812 21.3125 9.46688 19.5188 9.2775 17.3425C9.2775 17.3425 9.97062 14.7588 14.2419 14.7588C14.7037 14.7588 16.0237 13.47 16.0481 13.0963C16.0425 12.9744 13.4288 11.9344 12.4094 10.93C11.865 10.3938 11.6062 10.135 11.3769 9.94063C11.2528 9.83567 11.123 9.73761 10.9881 9.64688C10.6459 8.44892 10.6315 7.18108 10.9462 5.97563C9.40312 6.67875 8.20312 7.78813 7.33063 8.77H7.32375C6.72813 8.01563 6.77 5.5275 6.80375 5.00813C6.79688 4.97563 6.36 5.235 6.30375 5.27438C5.77817 5.64932 5.28687 6.07014 4.83563 6.53188C4.32213 7.05249 3.853 7.61507 3.43313 8.21375C2.46713 9.58275 1.78205 11.1296 1.4175 12.765C1.41063 12.7975 1.40438 12.8313 1.3975 12.8644C1.36938 12.9963 1.24188 13.6675 1.22438 13.8113C1.22438 13.8225 1.22438 13.8006 1.22438 13.8113C1.10735 14.5048 1.03242 15.2049 1 15.9075V15.9844C1 24.2794 7.725 31.0044 16.02 31.0044C23.4494 31.0044 29.6175 25.6106 30.8256 18.5256C30.8506 18.3338 30.8713 18.14 30.8937 17.9463C31.1925 15.37 30.8606 12.6625 29.9194 10.3988ZM28.4294 11.17V11.1863V11.17Z" fill="url(#paint11_linear_11054_5362)"/>
<g clip-path="url(#clip0_11054_5362)">
<circle cx="25" cy="25" r="9" fill="#6347F5"/>
<path fill-rule="evenodd" clip-rule="evenodd" d="M25.7614 31.1875L29.5 27.4895V20.5H22.5105L18.8125 24.2386H25.7614V31.1875Z" fill="white"/>
</g>
<defs>
<linearGradient id="paint0_linear_11054_5362" x1="27.9313" y1="4.80313" x2="2.99625" y2="28.8606" gradientUnits="userSpaceOnUse">
<stop offset="0.05" stop-color="#FFF44F"/>
<stop offset="0.11" stop-color="#FFE847"/>
<stop offset="0.22" stop-color="#FFC830"/>
<stop offset="0.37" stop-color="#FF980E"/>
<stop offset="0.4" stop-color="#FF8B16"/>
<stop offset="0.46" stop-color="#FF672A"/>
<stop offset="0.53" stop-color="#FF3647"/>
<stop offset="0.7" stop-color="#E31587"/>
</linearGradient>
<radialGradient id="paint1_radial_11054_5362" cx="0" cy="0" r="1" gradientUnits="userSpaceOnUse" gradientTransform="translate(26.7788 3.44125) scale(31.3131 31.3131)">
<stop offset="0.13" stop-color="#FFBD4F"/>
<stop offset="0.19" stop-color="#FFAC31"/>
<stop offset="0.25" stop-color="#FF9D17"/>
<stop offset="0.28" stop-color="#FF980E"/>
<stop offset="0.4" stop-color="#FF563B"/>
<stop offset="0.47" stop-color="#FF3750"/>
<stop offset="0.71" stop-color="#F5156C"/>
<stop offset="0.78" stop-color="#EB0878"/>
<stop offset="0.86" stop-color="#E50080"/>
</radialGradient>
<radialGradient id="paint2_radial_11054_5362" cx="0" cy="0" r="1" gradientUnits="userSpaceOnUse" gradientTransform="translate(15.337 16.2425) scale(31.3131 31.3131)">
<stop offset="0.3" stop-color="#960E18"/>
<stop offset="0.35" stop-color="#B11927" stop-opacity="0.74"/>
<stop offset="0.43" stop-color="#DB293D" stop-opacity="0.34"/>
<stop offset="0.5" stop-color="#F5334B" stop-opacity="0.09"/>
<stop offset="0.53" stop-color="#FF3750" stop-opacity="0"/>
</radialGradient>
<radialGradient id="paint3_radial_11054_5362" cx="0" cy="0" r="1" gradientUnits="userSpaceOnUse" gradientTransform="translate(19.1125 -3.665) scale(22.685 22.685)">
<stop offset="0.13" stop-color="#FFF44F"/>
<stop offset="0.25" stop-color="#FFDC3E"/>
<stop offset="0.51" stop-color="#FF9D12"/>
<stop offset="0.53" stop-color="#FF980E"/>
</radialGradient>
<radialGradient id="paint4_radial_11054_5362" cx="0" cy="0" r="1" gradientUnits="userSpaceOnUse" gradientTransform="translate(11.8738 24.4219) scale(14.9094)">
<stop offset="0.35" stop-color="#3A8EE6"/>
<stop offset="0.47" stop-color="#5C79F0"/>
<stop offset="0.67" stop-color="#9059FF"/>
<stop offset="1" stop-color="#C139E6"/>
</radialGradient>
<radialGradient id="paint5_radial_11054_5362" cx="0" cy="0" r="1" gradientUnits="userSpaceOnUse" gradientTransform="translate(15.7867 12.521) rotate(-13.8972) scale(7.89907 9.27953)">
<stop offset="0.21" stop-color="#9059FF" stop-opacity="0"/>
<stop offset="0.28" stop-color="#8C4FF3" stop-opacity="0.06"/>
<stop offset="0.75" stop-color="#7716A8" stop-opacity="0.45"/>
<stop offset="0.97" stop-color="#6E008B" stop-opacity="0.6"/>
</radialGradient>
<radialGradient id="paint6_radial_11054_5362" cx="0" cy="0" r="1" gradientUnits="userSpaceOnUse" gradientTransform="translate(14.9412 2.16) scale(10.7263)">
<stop stop-color="#FFE226"/>
<stop offset="0.12" stop-color="#FFDB27"/>
<stop offset="0.3" stop-color="#FFC82A"/>
<stop offset="0.5" stop-color="#FFA930"/>
<stop offset="0.73" stop-color="#FF7E37"/>
<stop offset="0.79" stop-color="#FF7139"/>
</radialGradient>
<radialGradient id="paint7_radial_11054_5362" cx="0" cy="0" r="1" gradientUnits="userSpaceOnUse" gradientTransform="translate(23.3725 -4.64312) scale(45.7631 45.7631)">
<stop offset="0.11" stop-color="#FFF44F"/>
<stop offset="0.46" stop-color="#FF980E"/>
<stop offset="0.62" stop-color="#FF5634"/>
<stop offset="0.72" stop-color="#FF3647"/>
<stop offset="0.9" stop-color="#E31587"/>
</radialGradient>
<radialGradient id="paint8_radial_11054_5362" cx="0" cy="0" r="1" gradientUnits="userSpaceOnUse" gradientTransform="translate(18.949 0.356814) rotate(84.2321) scale(33.3568 21.9155)">
<stop stop-color="#FFF44F"/>
<stop offset="0.06" stop-color="#FFE847"/>
<stop offset="0.17" stop-color="#FFC830"/>
<stop offset="0.3" stop-color="#FF980E"/>
<stop offset="0.36" stop-color="#FF8B16"/>
<stop offset="0.45" stop-color="#FF672A"/>
<stop offset="0.57" stop-color="#FF3647"/>
<stop offset="0.74" stop-color="#E31587"/>
</radialGradient>
<radialGradient id="paint9_radial_11054_5362" cx="0" cy="0" r="1" gradientUnits="userSpaceOnUse" gradientTransform="translate(14.6886 6.1325) scale(28.57)">
<stop offset="0.14" stop-color="#FFF44F"/>
<stop offset="0.48" stop-color="#FF980E"/>
<stop offset="0.59" stop-color="#FF5634"/>
<stop offset="0.66" stop-color="#FF3647"/>
<stop offset="0.9" stop-color="#E31587"/>
</radialGradient>
<radialGradient id="paint10_radial_11054_5362" cx="0" cy="0" r="1" gradientUnits="userSpaceOnUse" gradientTransform="translate(22.2306 7.805) scale(31.27 31.27)">
<stop offset="0.09" stop-color="#FFF44F"/>
<stop offset="0.23" stop-color="#FFE141"/>
<stop offset="0.51" stop-color="#FFAF1E"/>
<stop offset="0.63" stop-color="#FF980E"/>
</radialGradient>
<linearGradient id="paint11_linear_11054_5362" x1="27.6312" y1="4.67438" x2="6.415" y2="25.8912" gradientUnits="userSpaceOnUse">
<stop offset="0.17" stop-color="#FFF44F" stop-opacity="0.8"/>
<stop offset="0.27" stop-color="#FFF44F" stop-opacity="0.63"/>
<stop offset="0.49" stop-color="#FFF44F" stop-opacity="0.22"/>
<stop offset="0.6" stop-color="#FFF44F" stop-opacity="0"/>
</linearGradient>
<clipPath id="clip0_11054_5362">
<rect width="18" height="18" fill="white" transform="translate(16 16)"/>
</clipPath>
</defs>
</svg>
