<svg width="34" height="34" viewBox="0 0 34 34" fill="none" xmlns="http://www.w3.org/2000/svg">
<path fill-rule="evenodd" clip-rule="evenodd" d="M17.8253 2.75013e-07H14.1747C12.9705 -1.04395e-05 11.9992 -1.90735e-05 11.2126 0.0645418C10.4028 0.131015 9.69149 0.271457 9.03339 0.608337C7.98804 1.14344 7.13815 1.99729 6.60552 3.0475C6.2702 3.70866 6.13041 4.42329 6.06424 5.23689C5.99998 6.02707 5.99999 7.00286 6 8.21266V23.7873C5.99999 24.9971 5.99998 25.9729 6.06424 26.7631C6.13041 27.5767 6.2702 28.2913 6.60552 28.9525C7.13815 30.0027 7.98804 30.8566 9.03339 31.3917C9.69149 31.7285 10.4028 31.869 11.2126 31.9355C11.9992 32 12.9704 32 14.1746 32H17.8254C19.0296 32 20.0008 32 20.7874 31.9355C21.5972 31.869 22.3085 31.7285 22.9666 31.3917C24.012 30.8566 24.8619 30.0027 25.3945 28.9525C25.7298 28.2913 25.8696 27.5767 25.9358 26.7631C26 25.9729 26 24.9971 26 23.7873V8.21265C26 7.00286 26 6.02707 25.9358 5.23689C25.8696 4.42329 25.7298 3.70866 25.3945 3.0475C24.8619 1.99729 24.012 1.14344 22.9666 0.608337C22.3085 0.271457 21.5972 0.131015 20.7874 0.0645418C20.0008 -1.90735e-05 19.0295 -1.04395e-05 17.8253 2.75013e-07ZM10.0423 2.59756C10.3349 2.44777 10.7212 2.34488 11.3936 2.28969C11.4463 2.28536 11.5002 2.28135 11.5554 2.27766C11.5554 2.36895 11.5554 2.47574 11.5554 2.60465C11.5554 3.42666 12.2187 4.09302 13.0369 4.09302H18.9628C19.781 4.09302 20.4443 3.42666 20.4443 2.60465C20.4443 2.44071 20.4443 2.34216 20.4443 2.27764C20.4995 2.28134 20.5536 2.28535 20.6064 2.28969C21.2788 2.34488 21.6651 2.44777 21.9577 2.59756C22.585 2.91862 23.0949 3.43093 23.4145 4.06106C23.5636 4.35503 23.666 4.74315 23.7209 5.41869C23.7769 6.10725 23.7778 6.9917 23.7778 8.26047V23.7395C23.7778 25.0083 23.7769 25.8927 23.7209 26.5813C23.666 27.2568 23.5636 27.645 23.4145 27.9389C23.0949 28.5691 22.585 29.0814 21.9577 29.4024C21.6651 29.5522 21.2788 29.6551 20.6064 29.7103C19.921 29.7666 19.0407 29.7674 17.7778 29.7674H14.2222C12.9593 29.7674 12.079 29.7666 11.3936 29.7103C10.7212 29.6551 10.3349 29.5522 10.0423 29.4024C9.41505 29.0814 8.90511 28.5691 8.58553 27.9389C8.43644 27.645 8.33402 27.2568 8.27908 26.5813C8.22309 25.8927 8.22222 25.0083 8.22222 23.7395V8.26047C8.22222 6.9917 8.22309 6.10725 8.27908 5.41869C8.33402 4.74315 8.43644 4.35503 8.58553 4.06106C8.90511 3.43093 9.41505 2.91862 10.0423 2.59756Z" fill="#575773"/>
<g clip-path="url(#clip0_202_5041)">
<mask id="mask0_202_5041" style="mask-type:luminance" maskUnits="userSpaceOnUse" x="16" y="16" width="18" height="18">
<path d="M34 25C34 20.0294 29.9706 16 25 16C20.0294 16 16 20.0294 16 25C16 29.9706 20.0294 34 25 34C29.9706 34 34 29.9706 34 25Z" fill="white"/>
</mask>
<g mask="url(#mask0_202_5041)">
<path d="M25 34C29.9706 34 34 29.9706 34 25C34 20.0294 29.9706 16 25 16C20.0294 16 16 20.0294 16 25C16 29.9706 20.0294 34 25 34Z" fill="#246CF6"/>
<path d="M25 34C29.9706 34 34 29.9706 34 25C34 20.0294 29.9706 16 25 16C20.0294 16 16 20.0294 16 25C16 29.9706 20.0294 34 25 34Z" fill="url(#paint0_radial_202_5041)"/>
<path d="M25 34C29.9706 34 34 29.9706 34 25C34 20.0294 29.9706 16 25 16C20.0294 16 16 20.0294 16 25C16 29.9706 20.0294 34 25 34Z" fill="url(#paint1_radial_202_5041)"/>
<path d="M25 34C29.9706 34 34 29.9706 34 25C34 20.0294 29.9706 16 25 16C20.0294 16 16 20.0294 16 25C16 29.9706 20.0294 34 25 34Z" fill="url(#paint2_radial_202_5041)"/>
<path fill-rule="evenodd" clip-rule="evenodd" d="M25.1914 19.8642C25.7758 19.4635 26.6716 19.8505 26.6876 20.5479L26.6878 20.5692V29.2187C26.6878 29.7049 26.3356 30.0624 25.844 30.0624C25.3576 30.0624 25.0086 29.6498 25.0004 29.1705L25.0003 29.1554V22.1874L22.8681 23.6001C22.4686 23.874 21.9082 23.701 21.6253 23.3124C21.3483 22.9173 21.4477 22.4424 21.8405 22.1625L21.8538 22.1532L25.1914 19.8642Z" fill="white"/>
</g>
</g>
<defs>
<radialGradient id="paint0_radial_202_5041" cx="0" cy="0" r="1" gradientUnits="userSpaceOnUse" gradientTransform="translate(17.125 32.0312) rotate(78.3106) scale(16.658 22.0908)">
<stop stop-color="#E06BF8"/>
<stop offset="1" stop-color="#F8876B" stop-opacity="0"/>
</radialGradient>
<radialGradient id="paint1_radial_202_5041" cx="0" cy="0" r="1" gradientUnits="userSpaceOnUse" gradientTransform="translate(34 34) rotate(135) scale(12.7279 20.2085)">
<stop stop-color="#00BF98"/>
<stop offset="1" stop-color="#00BF98" stop-opacity="0"/>
</radialGradient>
<radialGradient id="paint2_radial_202_5041" cx="0" cy="0" r="1" gradientUnits="userSpaceOnUse" gradientTransform="translate(34 11.2187) rotate(90) scale(17.1563 22.2584)">
<stop stop-color="#E06BF8"/>
<stop offset="1" stop-color="#E06BF8" stop-opacity="0"/>
</radialGradient>
<clipPath id="clip0_202_5041">
<rect width="18" height="18" fill="white" transform="translate(16 16)"/>
</clipPath>
</defs>
</svg>
