<svg width="24" height="24" viewBox="0 0 24 24" fill="none" xmlns="http://www.w3.org/2000/svg">
<path d="M17.0489 0H6.95111C5.98471 0 5.20459 0.783616 5.20459 1.74827V22.2535C5.20459 23.2173 5.98471 24 6.95111 24H17.0489C18.0136 24 18.7954 23.2173 18.7954 22.2535V1.74827C18.7954 0.783616 18.0136 0 17.0489 0ZM9.50836 1.06173H14.4934C14.6194 1.06173 14.7217 1.24976 14.7217 1.4824C14.7217 1.71504 14.6194 1.90394 14.4934 1.90394H9.50836C9.38155 1.90394 9.28097 1.71504 9.28097 1.4824C9.28097 1.24976 9.38155 1.06173 9.50836 1.06173ZM12.0009 22.2745C11.3861 22.2745 10.8858 21.7742 10.8858 21.1585C10.8858 20.5428 11.3861 20.0443 12.0009 20.0443C12.614 20.0443 13.1142 20.5428 13.1142 21.1585C13.1142 21.7742 12.614 22.2745 12.0009 22.2745ZM17.4871 18.4535H6.51382V2.94993H17.4871V18.4535Z" fill="#575773"/>
</svg>
