<svg width="34" height="34" viewBox="0 0 34 34" fill="none" xmlns="http://www.w3.org/2000/svg">
    <path fill-rule="evenodd" clip-rule="evenodd" d="M17.8253 2.75016e-07H14.1747H14.1746C12.9704 -1.04395e-05 11.9992 -1.9079e-05 11.2126 0.0645418C10.4028 0.131015 9.69149 0.271457 9.03339 0.608337C7.98804 1.14344 7.13815 1.99729 6.60552 3.0475C6.2702 3.70866 6.13041 4.42329 6.06424 5.23689C5.99998 6.02707 5.99999 7.00286 6 8.21266V8.21268V23.7873V23.7873C5.99999 24.9971 5.99998 25.9729 6.06424 26.7631C6.13041 27.5767 6.2702 28.2913 6.60552 28.9525C7.13815 30.0027 7.98804 30.8566 9.03339 31.3917C9.69149 31.7285 10.4028 31.869 11.2126 31.9355C11.9992 32 12.9704 32 14.1746 32H17.8254C19.0296 32 20.0008 32 20.7874 31.9355C21.5972 31.869 22.3085 31.7285 22.9666 31.3917C24.012 30.8566 24.8619 30.0027 25.3945 28.9525C25.7298 28.2913 25.8696 27.5767 25.9358 26.7631C26 25.9729 26 24.9971 26 23.7873V8.21265C26 7.00286 26 6.02707 25.9358 5.23689C25.8696 4.42329 25.7298 3.70866 25.3945 3.0475C24.8619 1.99729 24.012 1.14344 22.9666 0.608337C22.3085 0.271457 21.5972 0.131015 20.7874 0.0645418C20.0008 -1.9079e-05 19.0296 -1.04395e-05 17.8254 2.75016e-07H17.8253ZM10.0423 2.59756C10.3349 2.44777 10.7212 2.34488 11.3936 2.28969C11.4463 2.28536 11.5002 2.28135 11.5554 2.27766C11.5554 2.36895 11.5554 2.47574 11.5554 2.60465C11.5554 3.42666 12.2187 4.09302 13.0369 4.09302H18.9628C19.781 4.09302 20.4443 3.42666 20.4443 2.60465C20.4443 2.44071 20.4443 2.34216 20.4443 2.27764C20.4995 2.28134 20.5536 2.28535 20.6064 2.28969C21.2788 2.34488 21.6651 2.44777 21.9577 2.59756C22.585 2.91862 23.0949 3.43093 23.4145 4.06106C23.5636 4.35503 23.666 4.74315 23.7209 5.41869C23.7769 6.10725 23.7778 6.9917 23.7778 8.26047V23.7395C23.7778 25.0083 23.7769 25.8927 23.7209 26.5813C23.666 27.2568 23.5636 27.645 23.4145 27.9389C23.0949 28.5691 22.585 29.0814 21.9577 29.4024C21.6651 29.5522 21.2788 29.6551 20.6064 29.7103C19.921 29.7666 19.0407 29.7674 17.7778 29.7674H14.2222C12.9593 29.7674 12.079 29.7666 11.3936 29.7103C10.7212 29.6551 10.3349 29.5522 10.0423 29.4024C9.41505 29.0814 8.90511 28.5691 8.58553 27.9389C8.43644 27.645 8.33402 27.2568 8.27908 26.5813C8.22309 25.8927 8.22222 25.0083 8.22222 23.7395V8.26047C8.22222 6.9917 8.22309 6.10725 8.27908 5.41869C8.33402 4.74315 8.43644 4.35503 8.58553 4.06106C8.90511 3.43093 9.41505 2.91862 10.0423 2.59756Z" fill="#575773"/>
    <circle cx="25" cy="25" r="9" fill="url(#paint0_linear_11054_5362)"/>
    <mask id="mask0_11054_5362" style="mask-type:alpha" maskUnits="userSpaceOnUse" x="16" y="16" width="18" height="18">
        <circle cx="25" cy="25" r="9" fill="url(#paint1_linear_11054_5362)"/>
    </mask>
    <g mask="url(#mask0_11054_5362)">
        <g filter="url(#filter0_f_11054_5362)">
            <path d="M20.4104 19.241C24.9661 18.4628 29.872 21.3617 31.3681 25.7159C32.8641 30.07 30.3838 34.2307 25.8281 35.0089C21.2724 35.7871 16.3665 32.8882 14.8705 28.5341C13.3744 24.1799 15.8547 20.0193 20.4104 19.241Z" fill="url(#paint2_linear_11054_5362)"/>
        </g>
        <g filter="url(#filter1_f_11054_5362)">
            <path d="M31.2879 28.4031C27.7317 31.3549 22.0336 31.2973 18.5609 28.2746C15.0882 25.2518 15.1559 20.4084 18.7121 17.4566C22.2683 14.5048 27.9664 14.5623 31.4391 17.5851C34.9118 20.6079 34.8441 25.4513 31.2879 28.4031Z" fill="url(#paint3_linear_11054_5362)"/>
        </g>
        <path d="M28.5231 20.5458C28.2383 20.4996 27.9465 20.5259 27.6745 20.6221C27.4025 20.7184 27.1592 20.8815 26.9668 21.0965C26.5996 21.508 26.4854 22.0438 26.5736 22.5806C26.6534 23.0648 26.7594 23.5562 26.7832 24.0227C26.8166 24.7252 26.7097 25.4273 26.4688 26.088C26.2508 26.6898 25.9385 27.1535 25.2724 27.2561C25.2231 27.2638 25.0434 27.2694 24.9924 27.2722C24.9413 27.2749 24.7799 27.2644 24.73 27.2566C24.0645 27.154 23.7511 26.6904 23.5337 26.0886C23.2928 25.4278 23.1859 24.7257 23.2192 24.0232C23.2431 23.5584 23.349 23.0665 23.4289 22.5812C23.5171 22.0443 23.4028 21.5086 23.0357 21.097C22.8433 20.882 22.5999 20.7189 22.328 20.6227C22.056 20.5264 21.7642 20.5002 21.4794 20.5463C20.6247 20.6866 20.0563 21.4437 20.0502 22.2396C20.0478 22.5458 20.131 22.8466 20.2903 23.1081C20.556 23.5462 20.9919 23.8657 21.3724 24.1974C21.6242 24.4192 22.0595 25.0487 22.2731 25.7309C22.4023 26.1441 22.5077 26.5628 22.6119 26.9854C22.7584 27.5744 22.9597 28.8756 23.0922 29.4662C23.3568 30.6487 24.1665 30.9165 24.9779 30.9437H25.0068C25.8182 30.9165 26.6412 30.6481 26.9058 29.4657C27.0378 28.875 27.2386 27.5733 27.3861 26.9849C27.4909 26.5645 27.5957 26.1435 27.725 25.7303C27.9385 25.0481 28.3739 24.4164 28.6257 24.1968C29.0061 23.864 29.4415 23.5457 29.7077 23.1075C29.8678 22.8464 29.9517 22.5458 29.9501 22.2396C29.9451 21.4426 29.3766 20.6866 28.5231 20.5458Z" fill="white"/>
    </g>
    <defs>
        <filter id="filter0_f_11054_5362" x="4.43472" y="9.11475" width="37.3691" height="36.0204" filterUnits="userSpaceOnUse" color-interpolation-filters="sRGB">
            <feFlood flood-opacity="0" result="BackgroundImageFix"/>
            <feBlend mode="normal" in="SourceGraphic" in2="BackgroundImageFix" result="shape"/>
            <feGaussianBlur stdDeviation="5" result="effect1_foregroundBlur_11054_5362"/>
        </filter>
        <filter id="filter1_f_11054_5362" x="6" y="5.27985" width="38" height="35.3" filterUnits="userSpaceOnUse" color-interpolation-filters="sRGB">
            <feFlood flood-opacity="0" result="BackgroundImageFix"/>
            <feBlend mode="normal" in="SourceGraphic" in2="BackgroundImageFix" result="shape"/>
            <feGaussianBlur stdDeviation="5" result="effect1_foregroundBlur_11054_5362"/>
        </filter>
        <linearGradient id="paint0_linear_11054_5362" x1="17.4674" y1="18.4457" x2="30.8696" y2="32.2391" gradientUnits="userSpaceOnUse">
            <stop stop-color="#649A66"/>
            <stop offset="1" stop-color="#2B4CCF"/>
        </linearGradient>
        <linearGradient id="paint1_linear_11054_5362" x1="17.4674" y1="18.4457" x2="30.8696" y2="32.2391" gradientUnits="userSpaceOnUse">
            <stop stop-color="#649A66"/>
            <stop offset="1" stop-color="#2B4CCF"/>
        </linearGradient>
        <linearGradient id="paint2_linear_11054_5362" x1="20.86" y1="34.2699" x2="23.1738" y2="27.5109" gradientUnits="userSpaceOnUse">
            <stop stop-color="#8FEBFF"/>
            <stop offset="1" stop-color="#2B4CCF" stop-opacity="0"/>
        </linearGradient>
        <linearGradient id="paint3_linear_11054_5362" x1="24.1174" y1="16.7888" x2="23.9759" y2="30.7989" gradientUnits="userSpaceOnUse">
            <stop stop-color="#49F150"/>
            <stop offset="1" stop-color="#2B4CCF" stop-opacity="0"/>
        </linearGradient>
    </defs>
</svg>
