<svg width="11" height="12" viewBox="0 0 11 12" fill="none" xmlns="http://www.w3.org/2000/svg">
<path d="M0.217703 0.185739C0.0812758 0.327971 0 0.551479 0 0.84175V11.158C0 11.4482 0.0812758 11.6717 0.217703 11.814L0.252536 11.8488L6.03182 6.06662V5.93019L0.252536 0.153809" fill="#59C9F4"/>
<path d="M6.03174 5.93026V6.06669L7.95913 7.99409L8.00268 7.96796L10.2842 6.67336C10.9373 6.30181 10.9373 5.69805 10.2842 5.3265L8.00268 4.02899L7.95913 4.00287L6.03174 5.93026Z" fill="#FCD807"/>
<path d="M0.217773 11.8139C0.432574 12.0432 0.786704 12.0694 1.18728 11.843L7.99993 7.97075L6.03189 5.99982L0.217773 11.8139Z" fill="#EB424A"/>
<path d="M6.03189 5.99989L8.00283 4.02895L1.18728 0.156746C0.998601 0.049346 0.821536 0 0.66479 0C0.484823 0 0.330979 0.0638596 0.217773 0.185773L6.03189 5.99989Z" fill="#74C269"/>
</svg>
